<?xml version="1.0" encoding="utf-8"?>
<!-- Generator: Adobe Illustrator 19.1.0, SVG Export Plug-In . SVG Version: 6.00 Build 0)  -->
<svg version="1.1" id="Ebene_1" xmlns="http://www.w3.org/2000/svg" xmlns:xlink="http://www.w3.org/1999/xlink" x="0px" y="0px"
	 viewBox="0 0 300 59.4" style="enable-background:new 0 0 300 59.4;" xml:space="preserve">
<style type="text/css">
	.st0{fill:#FFFFFF;}
</style>
<g>
	<g>
		<path class="st0" d="M3.4,41c-1.2-0.6-2.3-1.2-3.4-1.8L1.2,37c1.1,0.6,2.2,1.2,3.4,1.7L3.4,41z"/>
		<path class="st0" d="M102.3,59.4c-0.7,0-1.4,0-2,0l0-2.5c0.7,0,1.5,0,2.2,0c1.8,0,3.5,0,5.3,0l0,2.5
			C106,59.4,104.1,59.4,102.3,59.4z M92.6,59.3c-2.5-0.1-5.1-0.2-7.6-0.3l0.1-2.5c2.5,0.1,5,0.2,7.6,0.3L92.6,59.3z M115.5,59.2
			l-0.1-2.5c2.5-0.1,5-0.2,7.6-0.3l0.1,2.5C120.5,59,118,59.1,115.5,59.2z M77.4,58.5c-2.5-0.2-5.1-0.4-7.6-0.6l0.2-2.5
			c2.5,0.2,5,0.5,7.5,0.6L77.4,58.5z M130.7,58.4l-0.2-2.5c2.5-0.2,5-0.4,7.6-0.6l0.2,2.5C135.8,58,133.2,58.2,130.7,58.4z
			 M145.9,57.1l-0.3-2.5c2.5-0.3,5-0.5,7.5-0.8l0.3,2.5C150.9,56.6,148.4,56.8,145.9,57.1z M62.2,57.1c-2.5-0.3-5.1-0.7-7.6-1
			l0.4-2.5c2.4,0.4,5,0.7,7.5,1L62.2,57.1z M161.1,55.3l-0.3-2.5c2.5-0.3,5-0.7,7.5-1.1l0.4,2.5C166.1,54.6,163.6,54.9,161.1,55.3z
			 M47.1,54.7c-2.5-0.5-5-1-7.5-1.5l0.5-2.5c2.4,0.5,4.9,1,7.4,1.5L47.1,54.7z M176.1,52.9l-0.4-2.5c2.5-0.4,5-0.9,7.5-1.3l0.5,2.5
			C181.1,52.1,178.6,52.5,176.1,52.9z M32.2,51.4c-2.5-0.7-5-1.4-7.4-2.1l0.7-2.4c2.3,0.7,4.8,1.4,7.3,2.1L32.2,51.4z M191.1,50.1
			l-0.5-2.5c2.5-0.5,5-1.1,7.4-1.6l0.6,2.5C196.1,49,193.6,49.6,191.1,50.1z M17.6,47c-2.4-0.9-4.8-1.8-7.1-2.8l1-2.3
			c2.3,0.9,4.6,1.9,7,2.7L17.6,47z M206,46.7l-0.6-2.5c2.5-0.6,4.9-1.2,7.3-1.9l0.7,2.5C210.9,45.5,208.4,46.1,206,46.7z
			 M220.7,42.8l-0.7-2.4c2.4-0.7,4.9-1.4,7.3-2.2l0.8,2.4C225.6,41.3,223.2,42.1,220.7,42.8z M235.3,38.2l-0.8-2.4
			c2.4-0.8,4.8-1.7,7.1-2.5l0.9,2.4C240.1,36.5,237.7,37.4,235.3,38.2z M249.6,32.9l-1-2.4c2.4-1,4.7-2,7-3l1,2.3
			C254.3,30.9,252,31.9,249.6,32.9z M263.5,26.6l-1.1-2.3c2.3-1.1,4.6-2.3,6.7-3.5l1.2,2.2C268.2,24.3,265.9,25.5,263.5,26.6z
			 M277,19.2l-1.4-2.1c2.2-1.4,4.3-2.8,6.2-4.2l1.5,2C281.4,16.3,279.2,17.8,277,19.2z"/>
		<path class="st0" d="M289.3,10l-1.7-1.9c0.9-0.9,1.8-1.7,2.7-2.6l1.8,1.8C291.2,8.2,290.2,9.1,289.3,10z"/>
	</g>
	<path class="st0" d="M271.4,9.2c4.8-0.5,9.6-1.4,14.3-2.6c2.3-0.6,4.5-1.3,6.7-2c2.3-0.8,5.1-2.5,7.5-1.8c-0.6-0.9-1.2-1.7-1.8-2.6
		c-2.8,7.2-6,14.2-9.7,21c-0.3,0.6,1.9,2.4,1.8,2.6c3.7-6.8,6.9-13.8,9.7-21c0.2-0.4-1.3-2.4-1.8-2.6c-2.2-0.7-4,0.4-6,1.2
		c-2.4,0.9-4.8,1.6-7.2,2.3c-5.1,1.4-10.2,2.3-15.5,2.9C269.8,6.6,270.7,9.3,271.4,9.2L271.4,9.2z"/>
</g>
</svg>
