<?xml version="1.0" encoding="utf-8"?>
<!-- Generator: Adobe Illustrator 19.1.0, SVG Export Plug-In . SVG Version: 6.00 Build 0)  -->
<svg version="1.1" id="Ebene_1" xmlns="http://www.w3.org/2000/svg" xmlns:xlink="http://www.w3.org/1999/xlink" x="0px" y="0px"
	 viewBox="0 0 472.9 93.6" style="enable-background:new 0 0 472.9 93.6;" xml:space="preserve">
<style type="text/css">
	.st0{fill:#D14491;}
</style>
<g>
	<path class="st0" d="M5.4,64.7c-1.8-0.9-3.6-1.8-5.4-2.8l1.9-3.5c1.7,0.9,3.5,1.8,5.3,2.7L5.4,64.7z"/>
	<path class="st0" d="M161.2,93.6c-1.1,0-2.1,0-3.2,0l0-4c1.2,0,2.4,0,3.5,0c2.8,0,5.6,0,8.4-0.1l0.1,4
		C167.1,93.6,164.1,93.6,161.2,93.6z M146,93.4c-4-0.1-8-0.3-12-0.4l0.2-4c3.9,0.2,7.9,0.3,11.9,0.4L146,93.4z M182,93.3l-0.1-4
		c3.9-0.1,7.9-0.3,11.9-0.5l0.2,4C190,93,186,93.2,182,93.3z M122,92.3c-4-0.3-8-0.6-12-1l0.4-4c3.9,0.4,7.9,0.7,11.9,1L122,92.3z
		 M206,92.1l-0.3-4c3.9-0.3,7.9-0.6,11.9-0.9l0.3,4C214,91.5,210,91.8,206,92.1z M230,90l-0.4-4c3.9-0.4,7.9-0.9,11.9-1.3l0.5,4
		C237.9,89.1,233.9,89.6,230,90z M98.1,89.9c-4-0.5-8-1-11.9-1.6l0.6-4c3.9,0.6,7.8,1.1,11.8,1.6L98.1,89.9z M253.9,87.1l-0.5-4
		c3.9-0.5,7.9-1.1,11.8-1.7l0.6,4C261.8,86,257.8,86.6,253.9,87.1z M74.3,86.3c-4-0.7-8-1.5-11.8-2.4l0.9-3.9
		c3.8,0.8,7.7,1.6,11.7,2.4L74.3,86.3z M277.6,83.4l-0.7-3.9c3.9-0.7,7.9-1.4,11.8-2.1l0.7,3.9C285.5,82,281.5,82.8,277.6,83.4z
		 M50.8,81.1c-4-1-7.9-2.1-11.6-3.3l1.2-3.8c3.7,1.1,7.5,2.2,11.4,3.2L50.8,81.1z M301.2,79l-0.8-3.9c3.9-0.8,7.9-1.7,11.7-2.5
		l0.9,3.9C309.1,77.3,305.2,78.1,301.2,79z M27.7,74c-3.9-1.4-7.6-2.8-11.3-4.4L18,66c3.6,1.5,7.3,2.9,11.1,4.3L27.7,74z
		 M324.7,73.6l-1-3.9c3.9-1,7.8-2,11.6-3l1,3.9C332.5,71.7,328.6,72.7,324.7,73.6z M347.9,67.4l-1.1-3.8c3.9-1.1,7.7-2.3,11.4-3.5
		l1.2,3.8C355.7,65.1,351.8,66.3,347.9,67.4z M370.8,60.2l-1.3-3.8c3.8-1.3,7.6-2.6,11.2-4l1.4,3.8
		C378.5,57.5,374.7,58.9,370.8,60.2z M393.4,51.8l-1.5-3.7c3.7-1.5,7.4-3.1,11-4.7l1.6,3.7C400.9,48.7,397.2,50.3,393.4,51.8z
		 M415.4,42l-1.8-3.6c3.7-1.8,7.2-3.7,10.5-5.5l1.9,3.5C422.7,38.3,419.1,40.2,415.4,42z M436.6,30.3l-2.1-3.4
		c3.5-2.2,6.8-4.4,9.8-6.7l2.4,3.2C443.5,25.7,440.1,28,436.6,30.3z"/>
	<path class="st0" d="M456,15.8l-2.7-3c1.5-1.3,2.9-2.7,4.2-4.1l2.9,2.8C459,13,457.5,14.4,456,15.8z"/>
</g>
<path class="st0" d="M427.8,14.5c7.6-0.8,15.2-2.2,22.6-4.1c3.6-0.9,7.1-2,10.6-3.2c3.5-1.2,8-4,11.9-2.8c-0.9-1.4-1.8-2.7-2.8-4.1
	c-4.4,11.4-9.4,22.4-15.2,33.1c-0.5,0.9,3,3.8,2.9,4.1c5.8-10.7,10.9-21.8,15.2-33.1c0.3-0.7-2.1-3.9-2.8-4.1
	c-3.4-1-6.3,0.7-9.5,1.8c-3.7,1.4-7.5,2.6-11.4,3.6c-8,2.2-16.1,3.7-24.4,4.6C425.3,10.3,426.6,14.6,427.8,14.5L427.8,14.5z"/>
</svg>
