<?xml version="1.0" encoding="utf-8"?>
<!-- Generator: Adobe Illustrator 19.1.0, SVG Export Plug-In . SVG Version: 6.00 Build 0)  -->
<svg version="1.1" id="Ebene_1" xmlns="http://www.w3.org/2000/svg" xmlns:xlink="http://www.w3.org/1999/xlink" x="0px" y="0px"
	 viewBox="958 -64 1920 130" style="enable-background:new 958 -64 1920 130;" xml:space="preserve">
<style type="text/css">
	.st0{fill:#B8B8B8;}
	.st1{fill:#FFFFFF;}
	.st2{display:none;clip-path:url(#SVGID_2_);fill:#B6468E;}
	.st3{opacity:0.3;clip-path:url(#SVGID_4_);}
	.st4{opacity:0.2;clip-path:url(#SVGID_6_);}
</style>
<symbol  id="Feder-only" viewBox="-79.6 -35.5 159.3 71">
	<path class="st0" d="M-36.7,26.8c3.6,0.2,6.4,1.8,8.6,3.4c0-0.3,0-0.6,0-1c0.6,0.4,1.3,0.8,1.9,1.2c-1.4-1.9-2.7-3.8-4.1-5.8
		c0.5,0,1,0,1.4,0c3.4,1,7.3,0.4,10.8,0c0-0.1,0-0.2,0-0.2c-2.1,0.1-4.2,0.2-6.2,0.2c0-0.2,0-0.5,0-0.7c0.5-0.1,1-0.2,1.4-0.2
		c-2.1,0-6.2-0.3-7-1.7c0.8,0,1.6,0,2.4,0c2.7,0.8,8.2,0.9,10.6-0.2c-2.8,0-6.7-1.2-7.4-3.4c5.4,0.1,11.1,0.5,15.1-1.2
		c-0.6-0.1-1.3-0.2-1.9-0.2c0-0.3,0-0.6,0-1c7.7-0.9,12.7-6,19.4-8.2c0-0.1,0-0.2,0-0.2C6.5,8.1,4.6,8.6,2.8,9c0-0.1,0-0.2,0-0.2
		C3,8.7,3,8.5,3.1,8.3C4.1,8,5,7.7,6,7.4c0-0.1,0-0.2,0-0.2c-0.6,0-1.3,0-1.9,0c0.2-0.3,0.5-0.5,0.7-0.8C1.9,6.6-5.6,7.7-7,5.5
		c1.2,0,2.4,0,3.6,0C1.2,6.7,6.9,4.8,11.3,4.3c-0.2-0.1-0.3-0.2-0.5-0.2C7.9,2.9,4.6,3.3,2.6,1.4c0-0.1,0-0.2,0-0.2
		c0.2,0,0.5,0,0.7,0c6.3,2.2,16.3,2.5,22.4,4.5c-0.2-0.3-0.5-0.6-0.7-1c-0.8-0.5-1.6-1-2.4-1.4c0-0.1,0-0.2,0-0.2
		c3.8,0.6,5.5,3.1,8.4,4.5c0-0.1,0-0.2,0-0.2C28.2,3.8,19.1-2.7,17.8-5.8c0.3,0.2,0.6,0.3,1,0.5C26.9-2,30.2,6.8,36,12.7
		c-1.9-5.8-7.8-9-9.6-14.2c3.4,0.7,7,4,8.2,7c0.1,0,0.2,0,0.2,0C34.5,3,33,2,32.2,0c8,1.4,9,8.5,14.4,11c-1-1.9-1.9-3.8-2.9-5.8
		c0.1,0,0.2,0,0.2,0c0.6,0.6,1.3,1.3,1.9,1.9c-0.1-0.7-0.2-1.4-0.2-2.2c0.1,0.2,0.2,0.3,0.2,0.5c3.8,3.7,6,10.3,11,12.7
		c-1.5-2-3.3-3.8-3.8-6.7c0.1,0,0.2,0,0.2,0c0.3,0.2,0.6,0.5,1,0.7c0.8,1.7,3.4,3.4,5.3,4.1c-0.4-1-0.8-1.9-1.2-2.9
		c0.3,0.2,0.6,0.3,1,0.5c1.9,0.8,2.9,2.4,4.3,3.6c-0.9-3.1-2.6-4.8-4.3-7c0-0.1,0-0.2,0-0.2c5.4,1.5,6.6,10.9,14.9,13.5
		c-0.6-0.8-0.7-0.7-0.7-1.4c0.1,0,0.2,0,0.2,0c1.7,0.2,2.8,0.8,3.4,2.2c0.1,0,0.2,0,0.2,0c0.7-4.2,0.3-7.9-0.5-11.8
		c0.1,0,0.2,0,0.2,0c0.2,0.1,0.3,0.2,0.5,0.2c0.2,0.6,0.3,1.1,0.5,1.7c0.1,0,0.2,0,0.2,0c-0.1-7.2-3.8-11.5-7.4-16.3
		c0-0.1,0-0.2,0-0.2c1.2,0.3,3.9,3.1,4.1,2.6c0.2,0,0.3,0,0.5,0c-0.6-1-1.1-1.9-1.7-2.9c0.3,0.2,0.6,0.3,1,0.5
		c2.3,0.9,4,3.3,4.8,5.8c0.1,0,0.2,0,0.2,0c-0.6-3.6-3-4.8-4.3-7.4c0.1,0,0.2,0,0.2,0C76.7-2.7,77.8-2,79-1.4c0-0.1,0-0.2,0-0.2
		c-1.8-2.9-4.2-5-7.9-6c0-0.2,0-0.3,0-0.5c0.1,0,0.2,0,0.2,0c1.7,0.6,3.4,1.3,5,1.9c-4.9-8-15.7-8.2-25-12c-3.1-1.7-6.2-3.4-9.4-5
		c-1.8-0.7-11.9-2.2-12.5-3.1c2-0.1,4-0.2,6-0.2c-4.3-0.2-8.6-0.5-13-0.7c-3.1,0.6-6.2,1.1-9.4,1.7c0-0.1,0-0.2,0-0.2
		c0.1-0.2,0.2-0.3,0.2-0.5c1.8-0.6,3.7-1.3,5.5-1.9c1.7-0.2,3.4-0.3,5-0.5c-2.6-0.3-8.6,0-11-0.7c0.1-0.2,0.2-0.3,0.2-0.5
		c1.2-0.4,2.4-0.8,3.6-1.2c-0.2,0-0.3,0-0.5,0c-0.9-0.9-2.4-1.6-3.8-1.2c0.5-0.6,1-1.1,1.4-1.7c-3.7-0.1-5.5,1-8.2,1.7
		c0-0.2,0-0.5,0-0.7c0.2-0.4,0.5-0.8,0.7-1.2c-4.2,0-6.5,1.6-9.8,2.2c0.1-0.3,0.2-0.6,0.2-1c1.3-0.7,2.6-1.4,3.8-2.2
		c-3,1.1-6.1,2.2-9.1,3.4c0.5-1.7,2.5-3,4.1-3.6c0-0.1,0-0.2,0-0.2c-4.8,0.6-7.3,3.3-11,4.3c0-0.3,0-0.6,0-1c0.3-0.9,0.6-1.8,1-2.6
		c-0.1,0-0.2,0-0.2,0c-4.6,2.2-7.6,8.3-10.3,9.4c0-0.2,0-0.5,0-0.7c0.4-1,0.8-1.9,1.2-2.9c-0.1,0-0.2,0-0.2,0
		c-3.8,3-7.4,7.4-9.8,11.8c-1.3,2.4-1.4,6.2-4.1,7.2c0-0.4,0-0.8,0-1.2c0.5-2.1,1-4.2,1.4-6.2c-0.1,0-0.2,0-0.2,0
		c-0.6,1.3-0.7,0.4-1.2,1c-1.4,2.4-1.7,7-4.1,8.4c-0.8,0.7-1.5,0.4-2.4,0c-0.4-2.2-0.8-4.5-1.2-6.7c-0.6,3.3-1.1,6.6-1.7,9.8
		c-0.4,0-0.8,0-1.2,0c-0.5-1.3-1-1-1.2-2.6c-0.2-0.8-0.3-1.6-0.5-2.4c0,2.9,0,5.8,0,8.6c-0.4,0-0.8,0-1.2,0
		c-2.5-1.6-2.9-4.9-5.5-6.5c0.7,3.7,3.9,7.8,2.9,12c-0.1,0-0.2,0-0.2,0c-1.1-0.9-1.6-1.5-2-2.8c-0.1,0-0.2,0-0.2,0
		c0,0.4,0,0.8,0,1.2c-0.7-0.3-1.4-0.6-2.2-1c1,1.7,3.5,4.5,2.2,7.7c-0.2,0.3-0.3,0.6-0.5,1c-0.8-0.1-1.6-0.2-2.4-0.2
		c1.4,1.4,3.4,2,3.8,4.3c-0.2,0.2-0.5,0.3-0.7,0.5c-4.1,1.9-11.3-1-14.9,0c4.1,0.8,10.1,1.6,15.4,1c0,0.3,0,0.6,0,1
		c-0.1,0.2-0.2,0.3-0.2,0.5c-7.7,1.3-16.5,2.2-23.5-0.7c0.1,0.7,0.2,1.4,0.2,2.2c9,4.4,21.4,1.5,29-1.9c17.8-7.8,32.2-31,53.5-31.4
		c0,0.2,0,0.3,0,0.5c-26.3,5.7-34.4,28.7-59.3,35.5c0,0.4,0,0.8,0,1.2c0.5-0.2,1-0.3,1.4-0.5c-0.2,1.1-0.3,2.2-0.5,3.4
		c0.2,0.5,1.4,0.3,1,1.9c-0.4,1.3-1.5,1.6-0.5,3.8c0-0.2,0-0.3,0-0.5c0.6-1.4,1.1-2.9,1.7-4.3c0.3,0,0.6,0,1,0
		c0.2,1,0.3,1.9,0.5,2.9c0.4-1.2,0.6-1.5,2.2-1.7c0.6,1.1,1.1,2.2,1.7,3.4c0.7-0.6,0.2-0.5,1.2-0.5c0.6,1.6,1.3,3.2,1.9,4.8
		c0-1.4,0-2.1,1-2.6c0.2,0.3,0.3,0.6,0.5,1c-0.2-2.9-0.2-7.2,1.7-8.2c0,3.3,0.7,5.5,1.4,7.9c0.1,0,0.2,0,0.2,0
		c-0.4-1.8-1.1-4.1-0.5-6.2c0.1,0,0.2,0,0.2,0c0.2,0.1,0.5,0.2,0.7,0.2c0.4,1,0.8,1.9,1.2,2.9c0.1,0,0.2,0,0.2,0
		c0.2-1.2-0.2-0.7,0.7-1.2c0.2,0.8,0.5,1.6,0.7,2.4c0.1-0.2,0.2-0.5,0.2-0.7C-35.7,29.8-36.5,28.5-36.7,26.8z"/>
</symbol>
<symbol  id="up2you" viewBox="-112.3 -48.2 224.6 96.4">
	<path class="st1" d="M5.1,48.2C18.8,47.6,24.6,35,17.1,23C6.3,6.1-27.4,5.6-36.5-10.6c0-0.1,0-0.2,0-0.2c4.9,0.1,8.8,2.3,14.2,1.4
		c4.3-0.7,9.8-3.2,15.1-1.9c4,0.9,6.9,4.1,10.1,6c0.1,0,0.2,0,0.2,0c0-0.6,0-1.3,0-1.9c-2.3-7.4-8.7-11.5-16.8-13
		c-4.9-0.9-10.2,1.4-14.4,1.9c-12.8,1.6-16-1.7-17-1.4c0.3,6.5,12.9,15.3,17.8,18.2c14.8,9.1,34.7,16.1,38.6,35.8
		c3,14.7-17.7,13.9-22.6,4.8c-1.8-3.4-2.6-9.3,1.2-11c0.7-0.2,1.4-0.3,2.2-0.5c0.8,0.6,1.6,1.3,2.4,1.9c-0.3,1.5-0.6,3-1,4.6
		c2.8,0.3,4.1-0.2,5.8-1.4c3.9-12-12.3-13.4-14.6-4.1C-17.8,38-8.1,44.5-2.1,46.8C0.3,47.3,2.7,47.8,5.1,48.2z"/>
	<path class="st1" d="M-37.9,1.2c-5.4-5.5-13.6-23.3-25-20.2c-0.2,0.3-0.5,0.6-0.7,1c4.2,5.1,9.9,7.7,12,15.1
		c2,7.1-2.7,12.6-8.6,9.8c-0.1,0-0.2,0-0.2,0c0.2,0.6,0.5,1.3,0.7,1.9C-60.9,8-62,7.1-63.1,6.2c-1.2,0.5-2.9,1-4.1,0.2
		C-69.6,5-70.5,0.8-72-1.7C-74.6-5.9-84.9-18-91.4-16.8C-95.5-16-80.6,4.9-80.1,8.9c-0.8-0.8-1.6-1.6-2.4-2.4
		C-84,6.6-85.4,6.8-86.9,7c-5-5.3-9.8-19.3-17-24c-1.4-0.7-2.4,0-2.6,1.4c-1.1,3.9,9.3,20,11.3,24c0,0.1,0,0.2,0,0.2
		c-0.8-0.7-1.6-1.4-2.4-2.2c-1.5,0.1-3.1,0.6-4.6,0.5c-1.7-2.7-12.6-18.2-9.6-24.7c6.5-4.4,10.6,2.7,14.2,5.5
		c2.4-16,17.9,0.6,21.1,3.1c0.1-0.1,0.2-0.2,0.2-0.2C-83.2-22.2-90.1-35.1-96.9-48c0-0.1,0-0.2,0-0.2c0.9,0.6,1.8,1.3,2.6,1.9
		c1,0.9,2.8-0.3,5-0.5c7.2,7.1,8.3,20.9,14.4,29c0,0.2,0,0.3,0,0.5c0.6-1,1.3-2.1,1.9-3.1c3.5-0.8,5.4,0.7,7.9,1.7
		C-56.6-26.6-41-5.6-37.3,0.7C-37.4,0.9-37.7,1-37.9,1.2z M-67.2-16.1c-0.9-1.2-1.9-1.6-3.1-2.4c-2,0.1-2.3,1-2.9,2.4
		c-0.3,1-0.1,1.6,0.5,1.9c3.8,0.3,3.8-0.6,5.5-1.7C-67.2-15.9-67.2-16-67.2-16.1z M-66-14.9c-2.3,0.7-2.8,2-6.2,1.9
		c2.1,7.4,8.4,17.2,13.7,19c0.5-0.1,1-0.2,1.4-0.2c0.2-0.2,0.3-0.5,0.5-0.7C-56.6-0.3-62.7-10.2-66-14.9z"/>
	<path class="st1" d="M111.9,1.2c-5-4.4-12.9-19.6-21.8-18c-1.5,3.3,9.4,21.7,11.5,25.2c0,0.1,0,0.2,0,0.2c-2.8-1.4-2.7-1.9-7-1.7
		c-6-6.1-9-20.5-17-24c-0.6,0-1.1,0-1.7,0c-0.2,0.1-0.5,0.2-0.7,0.2c-1.5,8,8.8,18.6,11,25.5c-0.8-0.7-1.6-1.4-2.4-2.2
		c-1.8-0.7-3.2,0.9-4.8,0c-2-1.2-2.3-4.1-3.6-6c-2-3-7.7-6.7-11.8-7.4c4.8,10-0.7,18.1-12,13.4C47.3,4.6,44.9,0.7,41.5-2
		c-6.7-5.4-12.1-12.5-19.4-17.3c-0.1,0-0.2,0-0.2,0c2,3,4,6.1,6,9.1C31.2-4,34.5,2.1,37.7,8.3c0,0.1,0,0.2,0,0.2
		c-0.9-0.6-1.8-1.3-2.6-1.9c-1-0.6-2.3,0.1-4.1,0.2C24,0,22.9-15.5,11.3-17.4c-0.2,0.1-0.3,0.2-0.5,0.2C9-9,22.7,4.1,21.9,8.9
		c-0.8-0.7-1.6-1.4-2.4-2.2c-1-0.6-2.7,0.1-4.6,0.2C11,1.8,3.4-9.6,5.8-17.5c4.1-3,7.9-0.3,11.3,1.9c0.1-0.1,0.2-0.2,0.2-0.2
		c-1-2.1-2.1-4.2-3.1-6.2c-1.6-0.5-3.2-1-4.8-1.4C3.7-25.7-5.9-28.8-6-36.5c0-2.8,1-4.7,2.6-5.8c4.7-3.2,10.9,0.6,13.4,3.4
		c4.7,4.9,6,12.1,10.2,17.5c2.6,1.7,5.1,3.4,7.7,5c4.3,4.1,8.6,8.2,13,12.2c-2.9-9.2-0.5-18.7,11-13.9c3,1.3,6.7,3.8,8.6,6.2
		c0.7,1.1,1.4,2.2,2.2,3.4c1.2,0.3,2.4,0.6,3.6,1c2.2,1.4,4.3,2.7,6.5,4.1C72.9-3.5,73-3.6,73-3.6c-2.1-4-4.9-8.6-3.4-14.2
		c6.6-4.2,10.5,2.4,14.2,5.5c0.3-3,1.2-5.1,3.1-6.5c9-2.2,22.9,13.1,25.4,19.4C112.2,0.9,112,1,111.9,1.2z M3.2-38.9
		c-1.4-1-5.5-2.1-7-0.2c-6,8.1,14.6,14,18.3,16.1C14.8-25.4,5.4-37.4,3.2-38.9z M57.4-6.5c-0.3-0.1-0.6-0.2-1-0.2
		c-1.2,0.6-1.8,1-2.4,2.2c0,0.1,0,0.2,0,0.2c2.1,0.2,2,1,1.9,2.6c-0.6,1-1.4,1.1-2.6,0.7c-0.2,0-0.3,0-0.5,0
		c-0.7-0.9-1.1-1.3-1.2-2.9C52.5-6,53.9-7,56.2-7.7c-1-3.1-6.5-11.5-10.8-10.1c-0.2,0.1-0.5,0.2-0.7,0.2c-2,9.7,6.7,20.4,12.7,24.2
		c0.6-0.1,1.3-0.2,1.9-0.2c0.2-0.1,0.5-0.2,0.7-0.2C61,1,58.5-2.6,57.4-6.5z"/>
</symbol>
<g>
	<g>
		<defs>
			<rect id="SVGID_1_" x="958" y="-64" width="1920" height="130"/>
		</defs>
		<clipPath id="SVGID_2_">
			<use xlink:href="#SVGID_1_"  style="overflow:visible;"/>
		</clipPath>
		<rect x="913" y="-168.3" class="st2" width="2010" height="270"/>
	</g>
	<g>
		<defs>
			<rect id="SVGID_3_" x="958" y="-64" width="1920" height="130"/>
		</defs>
		<clipPath id="SVGID_4_">
			<use xlink:href="#SVGID_3_"  style="overflow:visible;"/>
		</clipPath>
		<g class="st3">
			
				<use xlink:href="#up2you"  width="224.6" height="96.4" x="-112.3" y="-48.2" transform="matrix(0.6955 -0.2754 -0.2754 -0.6955 974.1437 186.9504)" style="overflow:visible;"/>
			
				<use xlink:href="#up2you"  width="224.6" height="96.4" x="-112.3" y="-48.2" transform="matrix(0.9132 0.3323 0.3323 -0.9132 1034.264 -25.4406)" style="overflow:visible;opacity:0.3;"/>
			
				<use xlink:href="#up2you"  width="224.6" height="96.4" x="-112.3" y="-48.2" transform="matrix(0.9656 0.1265 0.1265 -0.9656 1405.203 -14.5926)" style="overflow:visible;opacity:0.3;"/>
			
				<use xlink:href="#up2you"  width="224.6" height="96.4" x="-112.3" y="-48.2" transform="matrix(0.8992 0.3152 0.3152 -0.8992 1836.0142 216.6722)" style="overflow:visible;opacity:0.3;"/>
			
				<use xlink:href="#up2you"  width="224.6" height="96.4" x="-112.3" y="-48.2" transform="matrix(0.6638 -0.1448 -0.1448 -0.6638 2375.2083 -80.781)" style="overflow:visible;opacity:0.3;"/>
			
				<use xlink:href="#up2you"  width="224.6" height="96.4" x="-112.3" y="-48.2" transform="matrix(0.6 0.3188 0.3188 -0.6 2870.7949 58.6704)" style="overflow:visible;opacity:0.3;"/>
			
				<use xlink:href="#up2you"  width="224.6" height="96.4" x="-112.3" y="-48.2" transform="matrix(0.6025 0.314 0.314 -0.6025 1327.6892 -150.5121)" style="overflow:visible;opacity:0.3;"/>
			
				<use xlink:href="#up2you"  width="224.6" height="96.4" x="-112.3" y="-48.2" transform="matrix(0.6367 -0.2372 -0.2372 -0.6367 1547.9084 300.0743)" style="overflow:visible;opacity:0.3;"/>
			
				<use xlink:href="#up2you"  width="224.6" height="96.4" x="-112.3" y="-48.2" transform="matrix(0.7428 0.2441 0.2441 -0.7428 1957.5389 -77.0191)" style="overflow:visible;opacity:0.3;"/>
			
				<use xlink:href="#up2you"  width="224.6" height="96.4" x="-112.3" y="-48.2" transform="matrix(0.6794 0 0 -0.6794 2517.5886 309.6415)" style="overflow:visible;opacity:0.3;"/>
			
				<use xlink:href="#up2you"  width="224.6" height="96.4" x="-112.3" y="-48.2" transform="matrix(0.6967 -0.4097 -0.4097 -0.6967 2480.0222 -1.2068)" style="overflow:visible;opacity:0.3;"/>
			
				<use xlink:href="#up2you"  width="224.6" height="96.4" x="-112.3" y="-48.2" transform="matrix(0.5754 -0.3612 -0.3612 -0.5754 1236.8053 245.0478)" style="overflow:visible;opacity:0.3;"/>
			
				<use xlink:href="#up2you"  width="224.6" height="96.4" x="-112.3" y="-48.2" transform="matrix(0.9037 0.1925 0.1925 -0.9037 2725.0603 -58.2236)" style="overflow:visible;opacity:0.3;"/>
			
				<use xlink:href="#up2you"  width="224.6" height="96.4" x="-112.3" y="-48.2" transform="matrix(0.6794 0 0 -0.6794 2088.24 177.0031)" style="overflow:visible;opacity:0.3;"/>
			
				<use xlink:href="#up2you"  width="224.6" height="96.4" x="-112.3" y="-48.2" transform="matrix(0.6496 -0.1992 -0.1992 -0.6496 2309.8237 215.2818)" style="overflow:visible;opacity:0.3;"/>
			
				<use xlink:href="#up2you"  width="224.6" height="96.4" x="-112.3" y="-48.2" transform="matrix(0.6794 0 0 -0.6794 2708.0857 184.0218)" style="overflow:visible;opacity:0.3;"/>
			
				<use xlink:href="#up2you"  width="224.6" height="96.4" x="-112.3" y="-48.2" transform="matrix(0.6794 0 0 -0.6794 2155.0312 6.679)" style="overflow:visible;opacity:0.3;"/>
			
				<use xlink:href="#up2you"  width="224.6" height="96.4" x="-112.3" y="-48.2" transform="matrix(0.6794 0 0 -0.6794 1799.986 -1.0926)" style="overflow:visible;opacity:0.3;"/>
			
				<use xlink:href="#up2you"  width="224.6" height="96.4" x="-112.3" y="-48.2" transform="matrix(0.6794 0 0 -0.6794 1606.1223 -68.5183)" style="overflow:visible;opacity:0.3;"/>
			
				<use xlink:href="#up2you"  width="224.6" height="96.4" x="-112.3" y="-48.2" transform="matrix(0.6504 -0.1965 -0.1965 -0.6504 1238.1692 70.8105)" style="overflow:visible;opacity:0.3;"/>
		</g>
	</g>
	<g>
		<defs>
			<rect id="SVGID_5_" x="958" y="-64" width="1920" height="130"/>
		</defs>
		<clipPath id="SVGID_6_">
			<use xlink:href="#SVGID_5_"  style="overflow:visible;"/>
		</clipPath>
		<g class="st4">
			
				<use xlink:href="#Feder-only"  width="159.3" height="71" x="-79.6" y="-35.5" transform="matrix(1.1724 7.913802e-03 7.913802e-03 -1.1724 1195.9896 42.2207)" style="overflow:visible;"/>
			
				<use xlink:href="#Feder-only"  width="159.3" height="71" x="-79.6" y="-35.5" transform="matrix(0.7244 0.3981 0.3981 -0.7244 2824.8455 166.7398)" style="overflow:visible;opacity:0.2;"/>
			
				<use xlink:href="#Feder-only"  width="159.3" height="71" x="-79.6" y="-35.5" transform="matrix(1.3184 -0.1094 -0.1094 -1.3184 2748.8875 84.0399)" style="overflow:visible;opacity:0.2;"/>
			
				<use xlink:href="#Feder-only"  width="159.3" height="71" x="-79.6" y="-35.5" transform="matrix(0.9998 -1.918611e-02 -1.918611e-02 -0.9998 2839.2808 -194.24)" style="overflow:visible;opacity:0.2;"/>
			
				<use xlink:href="#Feder-only"  width="159.3" height="71" x="-79.6" y="-35.5" transform="matrix(0.8402 0.3034 0.3034 -0.8402 2407.1565 193.1893)" style="overflow:visible;opacity:0.2;"/>
			
				<use xlink:href="#Feder-only"  width="159.3" height="71" x="-79.6" y="-35.5" transform="matrix(0.8426 -0.3041 -0.3041 -0.8426 2493.8701 41.2165)" style="overflow:visible;opacity:0.2;"/>
			
				<use xlink:href="#Feder-only"  width="159.3" height="71" x="-79.6" y="-35.5" transform="matrix(0.7648 -0.6443 -0.6443 -0.7648 2305.6538 77.2379)" style="overflow:visible;opacity:0.2;"/>
			
				<use xlink:href="#Feder-only"  width="159.3" height="71" x="-79.6" y="-35.5" transform="matrix(1.3874 -0.1626 -0.1626 -1.3874 2108.6514 119.1878)" style="overflow:visible;opacity:0.2;"/>
			
				<use xlink:href="#Feder-only"  width="159.3" height="71" x="-79.6" y="-35.5" transform="matrix(0.8884 7.121716e-02 7.121716e-02 -0.8884 1909.3883 218.2988)" style="overflow:visible;opacity:0.2;"/>
			
				<use xlink:href="#Feder-only"  width="159.3" height="71" x="-79.6" y="-35.5" transform="matrix(0.7882 -0.6154 -0.6154 -0.7882 1620.8395 199.1443)" style="overflow:visible;opacity:0.2;"/>
			
				<use xlink:href="#Feder-only"  width="159.3" height="71" x="-79.6" y="-35.5" transform="matrix(1.2077 -0.2696 -0.2696 -1.2077 1312.0262 186.9886)" style="overflow:visible;opacity:0.2;"/>
			
				<use xlink:href="#Feder-only"  width="159.3" height="71" x="-79.6" y="-35.5" transform="matrix(0.6128 -0.4574 -0.4574 -0.6128 1372.8064 30.4807)" style="overflow:visible;opacity:0.2;"/>
			
				<use xlink:href="#Feder-only"  width="159.3" height="71" x="-79.6" y="-35.5" transform="matrix(0.8994 0.4371 0.4371 -0.8994 1641.3024 -95.6507)" style="overflow:visible;opacity:0.2;"/>
			
				<use xlink:href="#Feder-only"  width="159.3" height="71" x="-79.6" y="-35.5" transform="matrix(1.282 -0.3375 -0.3375 -1.282 1458.7949 -139.8299)" style="overflow:visible;opacity:0.2;"/>
			
				<use xlink:href="#Feder-only"  width="159.3" height="71" x="-79.6" y="-35.5" transform="matrix(0.7933 0 0 -0.7933 1314.7572 -159.4914)" style="overflow:visible;opacity:0.2;"/>
			
				<use xlink:href="#Feder-only"  width="159.3" height="71" x="-79.6" y="-35.5" transform="matrix(0.9594 -0.282 -0.282 -0.9594 1771.8442 -159.6038)" style="overflow:visible;opacity:0.2;"/>
			
				<use xlink:href="#Feder-only"  width="159.3" height="71" x="-79.6" y="-35.5" transform="matrix(0.7568 -8.950439e-02 -8.950439e-02 -0.7568 1915.3608 -14.1704)" style="overflow:visible;opacity:0.2;"/>
			
				<use xlink:href="#Feder-only"  width="159.3" height="71" x="-79.6" y="-35.5" transform="matrix(0.6466 0.5282 0.5282 -0.6466 1452.0374 98.489)" style="overflow:visible;opacity:0.2;"/>
			
				<use xlink:href="#Feder-only"  width="159.3" height="71" x="-79.6" y="-35.5" transform="matrix(0.7885 0.615 0.615 -0.7885 1712.1099 44.8804)" style="overflow:visible;opacity:0.2;"/>
			
				<use xlink:href="#Feder-only"  width="159.3" height="71" x="-79.6" y="-35.5" transform="matrix(0.9967 -8.116753e-02 -8.116753e-02 -0.9967 2254.2568 -80.2462)" style="overflow:visible;opacity:0.2;"/>
			
				<use xlink:href="#Feder-only"  width="159.3" height="71" x="-79.6" y="-35.5" transform="matrix(1.1117 -6.951097e-02 -6.951097e-02 -1.1117 2276.5562 -213.9716)" style="overflow:visible;opacity:0.2;"/>
			
				<use xlink:href="#Feder-only"  width="159.3" height="71" x="-79.6" y="-35.5" transform="matrix(0.9192 -0.3937 -0.3937 -0.9192 1030.9229 -131.1662)" style="overflow:visible;opacity:0.2;"/>
			
				<use xlink:href="#Feder-only"  width="159.3" height="71" x="-79.6" y="-35.5" transform="matrix(0.7538 -0.4304 -0.4304 -0.7538 982.1917 32.8941)" style="overflow:visible;opacity:0.2;"/>
			
				<use xlink:href="#Feder-only"  width="159.3" height="71" x="-79.6" y="-35.5" transform="matrix(0.9999 1.319165e-02 1.319165e-02 -0.9999 980.7163 206.5793)" style="overflow:visible;opacity:0.2;"/>
			
				<use xlink:href="#Feder-only"  width="159.3" height="71" x="-79.6" y="-35.5" transform="matrix(1.1501 0 0 -1.1501 2050.4399 -118.6922)" style="overflow:visible;opacity:0.2;"/>
			
				<use xlink:href="#Feder-only"  width="159.3" height="71" x="-79.6" y="-35.5" transform="matrix(1.4332 -2.528009e-02 -2.528009e-02 -1.4332 2566.6497 -158.0898)" style="overflow:visible;opacity:0.2;"/>
			
				<use xlink:href="#Feder-only"  width="159.3" height="71" x="-79.6" y="-35.5" transform="matrix(0.895 -0.4461 -0.4461 -0.895 2592.0994 215.281)" style="overflow:visible;opacity:0.2;"/>
		</g>
	</g>
</g>
</svg>
