<?xml version="1.0" encoding="utf-8"?>
<!-- Generator: Adobe Illustrator 19.1.0, SVG Export Plug-In . SVG Version: 6.00 Build 0)  -->
<svg version="1.1" id="Layer_1" xmlns="http://www.w3.org/2000/svg" xmlns:xlink="http://www.w3.org/1999/xlink" x="0px" y="0px"
	 viewBox="1868 -79 1920 130" style="enable-background:new 1868 -79 1920 130;" xml:space="preserve">
<style type="text/css">
	.st0{fill:none;stroke:#FFFFFF;stroke-miterlimit:10;}
	.st1{fill:#FFFFFF;}
	.st2{fill:#BABABA;}
	.st3{opacity:0.3;clip-path:url(#SVGID_2_);}
	.st4{clip-path:url(#SVGID_4_);}
</style>
<symbol  id="Feder-only" viewBox="-80.3 -37.6 160.5 75.3">
	<path class="st0" d="M-36.7,26.2c3.6,0.2,6.4,1.8,8.6,3.4c0-0.3,0-0.6,0-1c0.6,0.4,1.3,0.8,1.9,1.2c-1.4-1.9-2.7-3.8-4.1-5.8
		c0.5,0,1,0,1.4,0c3.4,1,7.3,0.4,10.8,0c0-0.1,0-0.2,0-0.2c-2.1,0.1-4.2,0.2-6.2,0.2c0-0.2,0-0.5,0-0.7c0.5-0.1,1-0.2,1.4-0.2
		c-2.1,0-6.2-0.3-7-1.7c0.8,0,1.6,0,2.4,0c2.7,0.8,8.2,0.9,10.6-0.2c-2.8,0-6.7-1.2-7.4-3.4c5.4,0.1,11.1,0.5,15.1-1.2
		c-0.6-0.1-1.3-0.2-1.9-0.2c0-0.3,0-0.6,0-1c7.7-0.9,12.7-6,19.4-8.2c0-0.1,0-0.2,0-0.2C6.5,7.5,4.6,8,2.8,8.4c0-0.1,0-0.2,0-0.2
		C3,8.1,3,7.9,3.1,7.7C4.1,7.4,5,7.1,6,6.8c0-0.1,0-0.2,0-0.2c-0.6,0-1.3,0-1.9,0c0.2-0.3,0.5-0.5,0.7-0.8C1.9,6-5.6,7.1-7,4.9
		c1.2,0,2.4,0,3.6,0C1.2,6.1,6.9,4.2,11.3,3.7c-0.2-0.1-0.3-0.2-0.5-0.2C7.9,2.3,4.6,2.7,2.6,0.8c0-0.1,0-0.2,0-0.2
		c0.2,0,0.5,0,0.7,0c6.3,2.2,16.3,2.5,22.4,4.5c-0.2-0.3-0.5-0.6-0.7-1c-0.8-0.5-1.6-1-2.4-1.4c0-0.1,0-0.2,0-0.2
		C26.4,3.1,28.1,5.6,31,7c0-0.1,0-0.2,0-0.2C28.2,3.2,19.1-3.3,17.8-6.4c0.3,0.2,0.6,0.3,1,0.5c8.1,3.3,11.4,12.1,17.2,18
		c-1.9-5.8-7.8-9-9.6-14.2c3.4,0.7,7,4,8.2,7c0.1,0,0.2,0,0.2,0c-0.3-2.5-1.8-3.5-2.6-5.5c8,1.4,9,8.5,14.4,11
		c-1-1.9-1.9-3.8-2.9-5.8c0.1,0,0.2,0,0.2,0c0.6,0.6,1.3,1.3,1.9,1.9c-0.1-0.7-0.2-1.4-0.2-2.2c0.1,0.2,0.2,0.3,0.2,0.5
		c3.8,3.7,6,10.3,11,12.7c-1.5-2-3.3-3.8-3.8-6.7c0.1,0,0.2,0,0.2,0c0.3,0.2,0.6,0.5,1,0.7c0.8,1.7,3.4,3.4,5.3,4.1
		c-0.4-1-0.8-1.9-1.2-2.9c0.3,0.2,0.6,0.3,1,0.5c1.9,0.8,2.9,2.4,4.3,3.6c-0.9-3.1-2.6-4.8-4.3-7c0-0.1,0-0.2,0-0.2
		c5.4,1.5,6.6,10.9,14.9,13.5c-0.6-0.8-0.7-0.7-0.7-1.4c0.1,0,0.2,0,0.2,0c1.7,0.2,2.8,0.8,3.4,2.2c0.1,0,0.2,0,0.2,0
		c0.7-4.2,0.3-7.9-0.5-11.8c0.1,0,0.2,0,0.2,0c0.2,0.1,0.3,0.2,0.5,0.2c0.2,0.6,0.3,1.1,0.5,1.7c0.1,0,0.2,0,0.2,0
		c-0.1-7.2-3.8-11.5-7.4-16.3c0-0.1,0-0.2,0-0.2c1.2,0.3,3.9,3.1,4.1,2.6c0.2,0,0.3,0,0.5,0c-0.6-1-1.1-1.9-1.7-2.9
		c0.3,0.2,0.6,0.3,1,0.5c2.3,0.9,4,3.3,4.8,5.8c0.1,0,0.2,0,0.2,0c-0.6-3.6-3-4.8-4.3-7.4c0.1,0,0.2,0,0.2,0C76.7-3.3,77.8-2.6,79-2
		c0-0.1,0-0.2,0-0.2c-1.8-2.9-4.2-5-7.9-6c0-0.2,0-0.3,0-0.5c0.1,0,0.2,0,0.2,0c1.7,0.6,3.4,1.3,5,1.9c-4.9-8-15.7-8.2-25-12
		c-3.1-1.7-6.2-3.4-9.4-5C40.1-24.5,30-26,29.4-26.9c2-0.1,4-0.2,6-0.2c-4.3-0.2-8.6-0.5-13-0.7c-3.1,0.6-6.2,1.1-9.4,1.7
		c0-0.1,0-0.2,0-0.2c0.1-0.2,0.2-0.3,0.2-0.5c1.8-0.6,3.7-1.3,5.5-1.9c1.7-0.2,3.4-0.3,5-0.5c-2.6-0.3-8.6,0-11-0.7
		c0.1-0.2,0.2-0.3,0.2-0.5c1.2-0.4,2.4-0.8,3.6-1.2c-0.2,0-0.3,0-0.5,0c-0.9-0.9-2.4-1.6-3.8-1.2c0.5-0.6,1-1.1,1.4-1.7
		c-3.7-0.1-5.5,1-8.2,1.7c0-0.2,0-0.5,0-0.7c0.2-0.4,0.5-0.8,0.7-1.2c-4.2,0-6.5,1.6-9.8,2.2c0.1-0.3,0.2-0.6,0.2-1
		c1.3-0.7,2.6-1.4,3.8-2.2c-3,1.1-6.1,2.2-9.1,3.4c0.5-1.7,2.5-3,4.1-3.6c0-0.1,0-0.2,0-0.2c-4.8,0.6-7.3,3.3-11,4.3
		c0-0.3,0-0.6,0-1c0.3-0.9,0.6-1.8,1-2.6c-0.1,0-0.2,0-0.2,0c-4.6,2.2-7.6,8.3-10.3,9.4c0-0.2,0-0.5,0-0.7c0.4-1,0.8-1.9,1.2-2.9
		c-0.1,0-0.2,0-0.2,0c-3.8,3-7.4,7.4-9.8,11.8c-1.3,2.4-1.4,6.2-4.1,7.2c0-0.4,0-0.8,0-1.2c0.5-2.1,1-4.2,1.4-6.2
		c-0.1,0-0.2,0-0.2,0c-0.6,1.3-0.7,0.4-1.2,1c-1.4,2.4-1.7,7-4.1,8.4c-0.8,0.7-1.5,0.4-2.4,0c-0.4-2.2-0.8-4.5-1.2-6.7
		c-0.6,3.3-1.1,6.6-1.7,9.8c-0.4,0-0.8,0-1.2,0c-0.5-1.3-1-1-1.2-2.6c-0.2-0.8-0.3-1.6-0.5-2.4c0,2.9,0,5.8,0,8.6
		c-0.4,0-0.8,0-1.2,0c-2.5-1.6-2.9-4.9-5.5-6.5c0.7,3.7,3.9,7.8,2.9,12c-0.1,0-0.2,0-0.2,0c-1.1-0.9-1.6-1.5-2-2.8
		c-0.1,0-0.2,0-0.2,0c0,0.4,0,0.8,0,1.2c-0.7-0.3-1.4-0.6-2.2-1c1,1.7,3.5,4.5,2.2,7.7c-0.2,0.3-0.3,0.6-0.5,1
		c-0.8-0.1-1.6-0.2-2.4-0.2c1.4,1.4,3.4,2,3.8,4.3c-0.2,0.2-0.5,0.3-0.7,0.5c-4.1,1.9-11.3-1-14.9,0c4.1,0.8,10.1,1.6,15.4,1
		c0,0.3,0,0.6,0,1c-0.1,0.2-0.2,0.3-0.2,0.5c-7.7,1.3-16.5,2.2-23.5-0.7c0.1,0.7,0.2,1.4,0.2,2.2c9,4.4,21.4,1.5,29-1.9
		c17.8-7.8,32.2-31,53.5-31.4c0,0.2,0,0.3,0,0.5C-23.2-8.8-31.3,14.2-56.2,21c0,0.4,0,0.8,0,1.2c0.5-0.2,1-0.3,1.4-0.5
		c-0.2,1.1-0.3,2.2-0.5,3.4c0.2,0.5,1.4,0.3,1,1.9c-0.4,1.3-1.5,1.6-0.5,3.8c0-0.2,0-0.3,0-0.5c0.6-1.4,1.1-2.9,1.7-4.3
		c0.3,0,0.6,0,1,0c0.2,1,0.3,1.9,0.5,2.9c0.4-1.2,0.6-1.5,2.2-1.7c0.6,1.1,1.1,2.2,1.7,3.4c0.7-0.6,0.2-0.5,1.2-0.5
		c0.6,1.6,1.3,3.2,1.9,4.8c0-1.4,0-2.1,1-2.6c0.2,0.3,0.3,0.6,0.5,1c-0.2-2.9-0.2-7.2,1.7-8.2c0,3.3,0.7,5.5,1.4,7.9
		c0.1,0,0.2,0,0.2,0c-0.4-1.8-1.1-4.1-0.5-6.2c0.1,0,0.2,0,0.2,0c0.2,0.1,0.5,0.2,0.7,0.2c0.4,1,0.8,1.9,1.2,2.9c0.1,0,0.2,0,0.2,0
		c0.2-1.2-0.2-0.7,0.7-1.2c0.2,0.8,0.5,1.6,0.7,2.4c0.1-0.2,0.2-0.5,0.2-0.7C-35.7,29.2-36.5,27.9-36.7,26.2z"/>
</symbol>
<symbol  id="Voegel" viewBox="-69.4 -67.7 138.9 135.3">
	<path class="st0" d="M39.2,66.7c1.6-0.9,5.9-3.7,8.9-2.6c1.4,0.5,1.3,1.6,3.4,1.9c0.2-0.7,0.5-1.4,0.7-2.2c3.8-0.4,7.7,0.1,11,0.5
		c-2.4-3.8-6.4-5.1-12.2-4.1c1-1.6,2-1.9,1.2-3.4c-3.5-1.5-7.3-1.7-9.6,1.4c1.1,0.8,2.2,1.6,3.4,2.4c-3.2,1.1-5.2,0-6.5,3.1
		C39.3,64.8,39.3,65.7,39.2,66.7z"/>
	<path class="st1" d="M10.6,60.7c0.3,0,5.9-2.5,6-2.6c-1.1,0.2-2.1,0.4-2.9-0.2c0.1-0.2,0.2-0.3,0.2-0.5c-0.3,0.1-0.6,0.2-1,0.2
		C12.6,59.4,12.2,59.5,10.6,60.7z"/>
	<path class="st0" d="M16.5,51.6c6.5,0,6.3-3.7,9.4-7c-0.1-0.8-0.1-0.7,0.2-1.4c3.5-0.9,5.4-2.5,5.5-6.7c-2,1.4-5.9,2.9-7.4,4.8
		c-0.2-0.1-0.3-0.2-0.5-0.2c-0.2-0.6-0.5-1.1-0.7-1.7c-1.9,1.3-2.6,2-3.4,4.6c1-0.1,1.9-0.2,2.9-0.2c-0.1,0.2-0.2,0.5-0.2,0.7
		C19.6,46.1,18.2,49.1,16.5,51.6z"/>
	<path class="st0" d="M53.2,39.3c2.1,0.1,4-0.2,5-1.2c-1-0.4-1.2-0.6-1.4-1.9c3.5-4.3,5.9-5,12.2-6.7c0-0.1,0-0.2,0-0.2
		c-0.2-0.2-0.5-0.3-0.7-0.5C62,24.4,53.5,29.9,50,32.2c0.3-2.3,1.2-4.4,2.2-6c-4.1-0.2-7,0.1-8.9,2.6c-0.2,0.6-0.5,1.1-0.7,1.7
		c-1.4-0.7-2.9-1.4-4.3-2.2c0.2,0.3,0.5,0.6,0.7,1C41.5,34.5,47.8,36.7,53.2,39.3z"/>
	<path class="st0" d="M11.6,26.1c1.8-1.4,3.7-2.7,5.5-4.1c0.4,1,0.2,0.8,1.2,1.2c0-0.9,0-1.8,0-2.6c1-0.1,0.9-0.1,1.4-0.5
		c-2.2-0.8-2.6-2.2-5.3-2.6c0.4,0.5,0.8,1,1.2,1.4C13.4,20,11.6,22.6,11.6,26.1z"/>
	<path class="st1" d="M-0.9,12c0.7-0.1,1.4-0.2,2.2-0.2c0.4-1.5,1.1-1.6,2.2-2.4C3.3,8.6,3.3,7.9,3.2,7.2c-0.1,0-0.2,0-0.2,0
		C2.7,8.6,2,8.6,0.9,9.1c-0.5-0.9,0-0.7-1-0.5c-0.1,0.3-0.1,0.5-0.2,0.7c0.2,0.1,0.5,0.2,0.7,0.2C0.2,10.9-0.2,11.1-0.9,12z"/>
	<path class="st0" d="M30.1,7.7c0,0.4,0,0.8,0,1.2c1.5-0.5,0.9,0.2,2.2,0.7c1.7,0.7,3.5-0.9,4.6-1.2c0-0.1,0-0.2,0-0.2
		c-3.7,0-3.7-1.7-5.3-2.6c-0.3-0.1-0.6-0.2-1-0.2c-0.1,0.3-0.2,0.6-0.2,1c-2.2-0.6-3.2-0.9-4.6-2.2c0.2,1.5,0.4,2.5,1.4,3.1
		C28,7.6,28.9,7.7,30.1,7.7z"/>
	<path class="st1" d="M8.1-0.3c0.2,0,0.3,0,0.5,0C8.4-0.3,8.1-0.3,8.1-0.3z"/>
	<path class="st1" d="M-17.6-0.5c2-0.1,4.7-1.2,5.8-1.9c-0.2,0-0.3,0-0.5,0c-0.9-1.1-1.8-1.7-3.4-2.2c0.2,0.3,0.5,0.6,0.7,1
		c-0.6,0.5-1.3,1-1.9,1.4c0.7,1.1,0.6,0.1,0.5,1.2C-16.9-0.8-17.2-0.7-17.6-0.5z"/>
	<path class="st1" d="M8.6-0.5c0.2,0,0.3,0,0.5,0C8.9-0.5,8.6-0.5,8.6-0.5z"/>
	<path class="st1" d="M9.2-1c0.2,0,0.5,0,0.7,0c0.1-0.2,0.2-0.3,0.2-0.5C10-1.7,9.9-1.8,9.9-2C9.8-1.9,9.6-1.8,9.4-1.7
		C9.4-1.5,9.4-1.2,9.2-1z"/>
	<path class="st1" d="M10.1-1c0.3,0,0.6,0,1,0c0-0.1,0-0.2,0-0.2C10.9-1.1,10.6-1.1,10.1-1z"/>
	<path class="st1" d="M-25.5-11.8c1.3,0,2,0.2,2.9-0.5c0-0.1,0-0.2,0-0.2c-1.7-0.3-0.8-0.7-2.2-1C-25.1-12.2-25.6-12.9-25.5-11.8z"
		/>
	<path class="st1" d="M-9.2-11.8c0.2-0.3,0.5-0.6,0.7-1c0.4-0.1,0.8-0.2,1.2-0.2c0.3,0.3,0.6,0.6,1,1c0-1.1,0.4-0.8,0-1.2
		c-0.4-0.5-0.9-1.3-1.2-0.5c-0.8,0.3-1,0.3-1.4,1C-9.1-12.4-9.1-12.1-9.2-11.8z"/>
	<path class="st1" d="M-24.6-21.6c0.1-0.2,0.2-0.3,0.2-0.5C-24.5-21.9-24.5-21.8-24.6-21.6z"/>
	<path class="st1" d="M-24.4-22.1c1-0.4,1.3-0.4,1.4-0.5c0.2-0.1,0.3-0.2,0.5-0.2c-0.4-0.2-0.8-0.3-1.2-0.5c-0.4,0.5,0,0.2-0.7,0.5
		C-24.4-22.6-24.4-22.3-24.4-22.1z"/>
	<path class="st1" d="M-26-26.2c0.1-0.2,0.2-0.5,0.2-0.7c-0.1,0-0.2,0-0.2,0C-26-26.7-26-26.4-26-26.2z"/>
	<path class="st1" d="M-67.3-26.4c0.1-0.2,0.2-0.3,0.2-0.5C-67.2-26.7-67.2-26.6-67.3-26.4z"/>
	<path class="st1" d="M-67.6-26.9c0.1-0.2,0.2-0.3,0.2-0.5C-67.4-27.2-67.4-27.1-67.6-26.9z"/>
	<path class="st1" d="M-67.8-27.4c0.1-0.2,0.2-0.3,0.2-0.5C-67.7-27.7-67.8-27.5-67.8-27.4z"/>
	<path class="st1" d="M-68.1-27.9c0.1-0.2,0.2-0.3,0.2-0.5C-67.8-28.2-67.9-28-68.1-27.9z"/>
	<path class="st1" d="M-68.2-28.3c0.1-0.2,0.2-0.3,0.2-0.5C-68.2-28.7-68.2-28.5-68.2-28.3z"/>
	<path class="st1" d="M-57.8-30c0.1-0.2,0.2-0.3,0.2-0.5C-57.5-30.3-57.7-30.2-57.8-30z"/>
	<path class="st1" d="M-58.5-33.9c0.1-0.2,0.2-0.3,0.2-0.5C-58.2-34.2-58.3-34-58.5-33.9z"/>
	<path class="st1" d="M-69.4-35.5c0.1-0.2,0.2-0.3,0.2-0.5C-69.3-35.9-69.4-35.7-69.4-35.5z"/>
	<path class="st1" d="M-24.4-36c0.1-0.2,0.2-0.3,0.2-0.5C-24.2-36.3-24.2-36.2-24.4-36z"/>
	<path class="st1" d="M-24.6-36.7c0.1-0.2,0.2-0.5,0.2-0.7c-0.1,0-0.2,0-0.2,0C-24.6-37.2-24.6-37-24.6-36.7z"/>
	<path class="st2" d="M-68.1-67.7c0.2,0,0.5,0,0.7,0C-67.6-67.7-67.8-67.7-68.1-67.7z"/>
</symbol>
<g>
	<g>
		<g>
			<defs>
				<rect id="SVGID_1_" x="1868" y="-79" width="1920" height="130"/>
			</defs>
			<clipPath id="SVGID_2_">
				<use xlink:href="#SVGID_1_"  style="overflow:visible;"/>
			</clipPath>
			<g class="st3">
				
					<use xlink:href="#Voegel"  width="138.9" height="135.3" x="-69.4" y="-67.7" transform="matrix(1.0068 0 0 -0.9134 1877.2859 -162.2763)" style="overflow:visible;"/>
				
					<use xlink:href="#Voegel"  width="138.9" height="135.3" x="-69.4" y="-67.7" transform="matrix(0.9131 1.515016e-02 1.670171e-02 -0.8283 1893.0448 131.9559)" style="overflow:visible;opacity:0.3;"/>
				
					<use xlink:href="#Voegel"  width="138.9" height="135.3" x="-69.4" y="-67.7" transform="matrix(1.0133 0.1102 0.1215 -0.9193 1912.7573 66.5283)" style="overflow:visible;opacity:0.3;"/>
				
					<use xlink:href="#Voegel"  width="138.9" height="135.3" x="-69.4" y="-67.7" transform="matrix(1.2057 -3.435688e-03 -3.787545e-03 -1.0936 2033.6604 -138.143)" style="overflow:visible;opacity:0.3;"/>
				
					<use xlink:href="#Voegel"  width="138.9" height="135.3" x="-69.4" y="-67.7" transform="matrix(1.3098 0 0 -1.1881 2131.7261 -101.681)" style="overflow:visible;opacity:0.3;"/>
				
					<use xlink:href="#Voegel"  width="138.9" height="135.3" x="-69.4" y="-67.7" transform="matrix(1.0516 -0.5228 -0.5763 -0.9539 2135.8782 -31.1695)" style="overflow:visible;opacity:0.3;"/>
				
					<use xlink:href="#Voegel"  width="138.9" height="135.3" x="-69.4" y="-67.7" transform="matrix(1.8307 -0.3863 -0.4259 -1.6606 2163.5859 62.3184)" style="overflow:visible;opacity:0.3;"/>
				
					<use xlink:href="#Voegel"  width="138.9" height="135.3" x="-69.4" y="-67.7" transform="matrix(1.1233 -0.1689 -0.1862 -1.0189 2104.6689 129.1801)" style="overflow:visible;opacity:0.3;"/>
				
					<use xlink:href="#Voegel"  width="138.9" height="135.3" x="-69.4" y="-67.7" transform="matrix(1.8236 0 0 -1.6542 2201.7544 190.9217)" style="overflow:visible;opacity:0.3;"/>
				
					<use xlink:href="#Voegel"  width="138.9" height="135.3" x="-69.4" y="-67.7" transform="matrix(2.8248 0 0 -2.5626 2371.386 99.6713)" style="overflow:visible;opacity:0.3;"/>
				
					<use xlink:href="#Voegel"  width="138.9" height="135.3" x="-69.4" y="-67.7" transform="matrix(0.9133 0 0 -0.8284 2226.6238 6.2118)" style="overflow:visible;opacity:0.3;"/>
				
					<use xlink:href="#Voegel"  width="138.9" height="135.3" x="-69.4" y="-67.7" transform="matrix(0.9133 0 0 -0.8284 2670.3701 -44.9883)" style="overflow:visible;opacity:0.3;"/>
				
					<use xlink:href="#Voegel"  width="138.9" height="135.3" x="-69.4" y="-67.7" transform="matrix(0.9127 2.935360e-02 3.235978e-02 -0.8279 2737.2864 93.1938)" style="overflow:visible;opacity:0.3;"/>
				
					<use xlink:href="#Voegel"  width="138.9" height="135.3" x="-69.4" y="-67.7" transform="matrix(1.6366 -0.3653 -0.4027 -1.4845 2398.8601 -92.7464)" style="overflow:visible;opacity:0.3;"/>
				
					<use xlink:href="#Voegel"  width="138.9" height="135.3" x="-69.4" y="-67.7" transform="matrix(0.9133 0 0 -0.8284 2569.9282 71.979)" style="overflow:visible;opacity:0.3;"/>
				
					<use xlink:href="#Voegel"  width="138.9" height="135.3" x="-69.4" y="-67.7" transform="matrix(0.8651 0.2656 0.2928 -0.7847 2685.748 182.3272)" style="overflow:visible;opacity:0.3;"/>
				
					<use xlink:href="#Voegel"  width="138.9" height="135.3" x="-69.4" y="-67.7" transform="matrix(1.1277 0 0 -1.023 2634.7903 161.3555)" style="overflow:visible;opacity:0.3;"/>
				
					<use xlink:href="#Voegel"  width="138.9" height="135.3" x="-69.4" y="-67.7" transform="matrix(0.9133 0 0 -0.8284 2674.2395 77.5197)" style="overflow:visible;opacity:0.3;"/>
				
					<use xlink:href="#Voegel"  width="138.9" height="135.3" x="-69.4" y="-67.7" transform="matrix(0.9133 0 0 -0.8284 2784.353 15.9647)" style="overflow:visible;opacity:0.3;"/>
				
					<use xlink:href="#Voegel"  width="138.9" height="135.3" x="-69.4" y="-67.7" transform="matrix(1.2285 -1.0874 -1.1988 -1.1144 2998.1128 142.2862)" style="overflow:visible;opacity:0.3;"/>
				
					<use xlink:href="#Voegel"  width="138.9" height="135.3" x="-69.4" y="-67.7" transform="matrix(2.3573 7.700633e-03 8.489273e-03 -2.1383 2936.9268 -14.7447)" style="overflow:visible;opacity:0.3;"/>
				
					<use xlink:href="#Voegel"  width="138.9" height="135.3" x="-69.4" y="-67.7" transform="matrix(1.4988 -0.3901 -0.4301 -1.3595 2798.6262 211.893)" style="overflow:visible;opacity:0.3;"/>
				
					<use xlink:href="#Voegel"  width="138.9" height="135.3" x="-69.4" y="-67.7" transform="matrix(1.4369 6.544943e-02 7.215226e-02 -1.3034 2972.0642 -71.9499)" style="overflow:visible;opacity:0.3;"/>
				
					<use xlink:href="#Voegel"  width="138.9" height="135.3" x="-69.4" y="-67.7" transform="matrix(1.2115 0 0 -1.0989 3247.2605 59.6033)" style="overflow:visible;opacity:0.3;"/>
				
					<use xlink:href="#Voegel"  width="138.9" height="135.3" x="-69.4" y="-67.7" transform="matrix(1.3924 0 0 -1.263 3170.1013 -97.0908)" style="overflow:visible;opacity:0.3;"/>
				
					<use xlink:href="#Voegel"  width="138.9" height="135.3" x="-69.4" y="-67.7" transform="matrix(1.0806 5.522756e-02 6.088354e-02 -0.9802 3147.7981 174.2228)" style="overflow:visible;opacity:0.3;"/>
				
					<use xlink:href="#Voegel"  width="138.9" height="135.3" x="-69.4" y="-67.7" transform="matrix(1.138 0.1068 0.1177 -1.0323 3472.1057 122.0556)" style="overflow:visible;opacity:0.3;"/>
				
					<use xlink:href="#Voegel"  width="138.9" height="135.3" x="-69.4" y="-67.7" transform="matrix(0.8674 0.7073 0.7798 -0.7868 3407.2073 160.5344)" style="overflow:visible;opacity:0.3;"/>
				
					<use xlink:href="#Voegel"  width="138.9" height="135.3" x="-69.4" y="-67.7" transform="matrix(2.0974 0 0 -1.9025 3058.3813 42.7022)" style="overflow:visible;opacity:0.3;"/>
				
					<use xlink:href="#Voegel"  width="138.9" height="135.3" x="-69.4" y="-67.7" transform="matrix(1.3851 0 0 -1.2564 3571.1951 -14.0466)" style="overflow:visible;opacity:0.3;"/>
				
					<use xlink:href="#Voegel"  width="138.9" height="135.3" x="-69.4" y="-67.7" transform="matrix(0.9196 0 0 -0.8342 3620.3386 100.6694)" style="overflow:visible;opacity:0.3;"/>
				
					<use xlink:href="#Voegel"  width="138.9" height="135.3" x="-69.4" y="-67.7" transform="matrix(0.9133 0 0 -0.8284 3565.4446 134.2067)" style="overflow:visible;opacity:0.3;"/>
				
					<use xlink:href="#Voegel"  width="138.9" height="135.3" x="-69.4" y="-67.7" transform="matrix(2.3264 0 0 -2.1103 3722.8958 111.9323)" style="overflow:visible;opacity:0.3;"/>
				
					<use xlink:href="#Voegel"  width="138.9" height="135.3" x="-69.4" y="-67.7" transform="matrix(0.8651 0.2656 0.2928 -0.7847 2510.5029 -82.4363)" style="overflow:visible;opacity:0.3;"/>
				
					<use xlink:href="#Voegel"  width="138.9" height="135.3" x="-69.4" y="-67.7" transform="matrix(0.9133 0 0 -0.8284 1979.0785 -19.3866)" style="overflow:visible;opacity:0.3;"/>
				
					<use xlink:href="#Voegel"  width="138.9" height="135.3" x="-69.4" y="-67.7" transform="matrix(1.8307 -0.3863 -0.4259 -1.6606 1902.4717 -27.3327)" style="overflow:visible;opacity:0.3;"/>
				
					<use xlink:href="#Voegel"  width="138.9" height="135.3" x="-69.4" y="-67.7" transform="matrix(2.8248 0 0 -2.5626 2391.6125 193.9448)" style="overflow:visible;opacity:0.3;"/>
				
					<use xlink:href="#Voegel"  width="138.9" height="135.3" x="-69.4" y="-67.7" transform="matrix(0.9133 0 0 -0.8284 3672.8245 174.3325)" style="overflow:visible;opacity:0.3;"/>
				
					<use xlink:href="#Voegel"  width="138.9" height="135.3" x="-69.4" y="-67.7" transform="matrix(0.9133 0 0 -0.8284 3510.5078 -70.1539)" style="overflow:visible;opacity:0.3;"/>
				
					<use xlink:href="#Voegel"  width="138.9" height="135.3" x="-69.4" y="-67.7" transform="matrix(0.9133 0 0 -0.8284 3432.5176 -16.2885)" style="overflow:visible;opacity:0.3;"/>
				
					<use xlink:href="#Voegel"  width="138.9" height="135.3" x="-69.4" y="-67.7" transform="matrix(0.9133 0 0 -0.8284 3401.8689 -97.779)" style="overflow:visible;opacity:0.3;"/>
			</g>
		</g>
	</g>
	<g>
		<g>
			<defs>
				<rect id="SVGID_3_" x="1868" y="-79" width="1920" height="130"/>
			</defs>
			<clipPath id="SVGID_4_">
				<use xlink:href="#SVGID_3_"  style="overflow:visible;"/>
			</clipPath>
			<g class="st4">
				
					<use xlink:href="#Feder-only"  width="160.5" height="75.3" x="-80.3" y="-37.6" transform="matrix(1.1587 7.821336e-03 7.821336e-03 -1.1587 2105.8826 25.8726)" style="overflow:visible;"/>
				
					<use xlink:href="#Feder-only"  width="160.5" height="75.3" x="-80.3" y="-37.6" transform="matrix(0.716 0.3935 0.3935 -0.716 3735.231 150.8678)" style="overflow:visible;"/>
				
					<use xlink:href="#Feder-only"  width="160.5" height="75.3" x="-80.3" y="-37.6" transform="matrix(1.303 -0.1081 -0.1081 -1.303 3658.6311 67.5356)" style="overflow:visible;"/>
				
					<use xlink:href="#Feder-only"  width="160.5" height="75.3" x="-80.3" y="-37.6" transform="matrix(0.9881 -1.896194e-02 -1.896194e-02 -0.9881 3749.1594 -210.387)" style="overflow:visible;"/>
				
					<use xlink:href="#Feder-only"  width="160.5" height="75.3" x="-80.3" y="-37.6" transform="matrix(0.8304 0.2999 0.2999 -0.8304 3317.4219 177.1937)" style="overflow:visible;"/>
				
					<use xlink:href="#Feder-only"  width="160.5" height="75.3" x="-80.3" y="-37.6" transform="matrix(0.8328 -0.3006 -0.3006 -0.8328 3403.4373 25.2783)" style="overflow:visible;"/>
				
					<use xlink:href="#Feder-only"  width="160.5" height="75.3" x="-80.3" y="-37.6" transform="matrix(0.7559 -0.6368 -0.6368 -0.7559 3214.8376 61.4229)" style="overflow:visible;"/>
				
					<use xlink:href="#Feder-only"  width="160.5" height="75.3" x="-80.3" y="-37.6" transform="matrix(1.3712 -0.1607 -0.1607 -1.3712 3018.3269 102.6095)" style="overflow:visible;"/>
				
					<use xlink:href="#Feder-only"  width="160.5" height="75.3" x="-80.3" y="-37.6" transform="matrix(0.878 7.038506e-02 7.038506e-02 -0.878 2819.3821 202.2708)" style="overflow:visible;"/>
				
					<use xlink:href="#Feder-only"  width="160.5" height="75.3" x="-80.3" y="-37.6" transform="matrix(0.779 -0.6082 -0.6082 -0.779 2530.0542 183.2995)" style="overflow:visible;"/>
				
					<use xlink:href="#Feder-only"  width="160.5" height="75.3" x="-80.3" y="-37.6" transform="matrix(1.1936 -0.2665 -0.2665 -1.1936 2221.5967 170.6275)" style="overflow:visible;"/>
				
					<use xlink:href="#Feder-only"  width="160.5" height="75.3" x="-80.3" y="-37.6" transform="matrix(0.6057 -0.4521 -0.4521 -0.6057 2282.22 14.8218)" style="overflow:visible;"/>
				
					<use xlink:href="#Feder-only"  width="160.5" height="75.3" x="-80.3" y="-37.6" transform="matrix(0.8888 0.432 0.432 -0.8888 2551.7153 -111.7276)" style="overflow:visible;"/>
				
					<use xlink:href="#Feder-only"  width="160.5" height="75.3" x="-80.3" y="-37.6" transform="matrix(1.267 -0.3336 -0.3336 -1.267 2368.28 -156.2697)" style="overflow:visible;"/>
				
					<use xlink:href="#Feder-only"  width="160.5" height="75.3" x="-80.3" y="-37.6" transform="matrix(0.7841 0 0 -0.7841 2224.6787 -175.403)" style="overflow:visible;"/>
				
					<use xlink:href="#Feder-only"  width="160.5" height="75.3" x="-80.3" y="-37.6" transform="matrix(0.9481 -0.2787 -0.2787 -0.9481 2681.425 -175.6784)" style="overflow:visible;"/>
				
					<use xlink:href="#Feder-only"  width="160.5" height="75.3" x="-80.3" y="-37.6" transform="matrix(0.748 -8.845863e-02 -8.845863e-02 -0.748 2825.1829 -30.0312)" style="overflow:visible;"/>
				
					<use xlink:href="#Feder-only"  width="160.5" height="75.3" x="-80.3" y="-37.6" transform="matrix(0.6391 0.5221 0.5221 -0.6391 2362.5803 82.6936)" style="overflow:visible;"/>
				
					<use xlink:href="#Feder-only"  width="160.5" height="75.3" x="-80.3" y="-37.6" transform="matrix(0.7793 0.6078 0.6078 -0.7793 2622.7385 28.9133)" style="overflow:visible;"/>
				
					<use xlink:href="#Feder-only"  width="160.5" height="75.3" x="-80.3" y="-37.6" transform="matrix(0.985 -8.021917e-02 -8.021917e-02 -0.985 3164.0647 -96.3835)" style="overflow:visible;"/>
				
					<use xlink:href="#Feder-only"  width="160.5" height="75.3" x="-80.3" y="-37.6" transform="matrix(1.0987 -6.869882e-02 -6.869882e-02 -1.0987 3186.366 -230.2423)" style="overflow:visible;"/>
				
					<use xlink:href="#Feder-only"  width="160.5" height="75.3" x="-80.3" y="-37.6" transform="matrix(0.9084 -0.3891 -0.3891 -0.9084 1940.3793 -147.1835)" style="overflow:visible;"/>
				
					<use xlink:href="#Feder-only"  width="160.5" height="75.3" x="-80.3" y="-37.6" transform="matrix(0.745 -0.4254 -0.4254 -0.745 1891.6223 17.0706)" style="overflow:visible;"/>
				
					<use xlink:href="#Feder-only"  width="160.5" height="75.3" x="-80.3" y="-37.6" transform="matrix(0.9882 1.303752e-02 1.303752e-02 -0.9882 1890.6323 190.429)" style="overflow:visible;"/>
				
					<use xlink:href="#Feder-only"  width="160.5" height="75.3" x="-80.3" y="-37.6" transform="matrix(1.1366 0 0 -1.1366 2960.3259 -135.0139)" style="overflow:visible;"/>
				
					<use xlink:href="#Feder-only"  width="160.5" height="75.3" x="-80.3" y="-37.6" transform="matrix(1.4164 -2.498472e-02 -2.498472e-02 -1.4164 3476.4785 -174.7343)" style="overflow:visible;"/>
				
					<use xlink:href="#Feder-only"  width="160.5" height="75.3" x="-80.3" y="-37.6" transform="matrix(0.8845 -0.4409 -0.4409 -0.8845 3501.498 199.2967)" style="overflow:visible;"/>
			</g>
		</g>
	</g>
</g>
</svg>
