<?xml version="1.0" encoding="utf-8"?>
<!-- Generator: Adobe Illustrator 19.1.0, SVG Export Plug-In . SVG Version: 6.00 Build 0)  -->
<svg version="1.1" id="Layer_1" xmlns="http://www.w3.org/2000/svg" xmlns:xlink="http://www.w3.org/1999/xlink" x="0px" y="0px"
	 viewBox="910 -15 1920 130" style="enable-background:new 910 -15 1920 130;" xml:space="preserve">
<style type="text/css">
	.st0{fill:none;stroke:#FFFFFF;stroke-miterlimit:10;}
	.st1{fill:#FFFFFF;}
	.st2{fill:#BABABA;}
	.st3{opacity:0.3;clip-path:url(#SVGID_2_);}
	.st4{clip-path:url(#SVGID_4_);}
</style>
<symbol  id="Feder-only" viewBox="-80.3 -37.6 160.5 75.3">
	<path class="st0" d="M-36.7,26.2c3.6,0.2,6.4,1.8,8.6,3.4c0-0.3,0-0.6,0-1c0.6,0.4,1.3,0.8,1.9,1.2c-1.4-1.9-2.7-3.8-4.1-5.8
		c0.5,0,1,0,1.4,0c3.4,1,7.3,0.4,10.8,0c0-0.1,0-0.2,0-0.2c-2.1,0.1-4.2,0.2-6.2,0.2c0-0.2,0-0.5,0-0.7c0.5-0.1,1-0.2,1.4-0.2
		c-2.1,0-6.2-0.3-7-1.7c0.8,0,1.6,0,2.4,0c2.7,0.8,8.2,0.9,10.6-0.2c-2.8,0-6.7-1.2-7.4-3.4c5.4,0.1,11.1,0.5,15.1-1.2
		c-0.6-0.1-1.3-0.2-1.9-0.2c0-0.3,0-0.6,0-1c7.7-0.9,12.7-6,19.4-8.2c0-0.1,0-0.2,0-0.2C6.5,7.5,4.6,8,2.8,8.4c0-0.1,0-0.2,0-0.2
		C3,8.1,3,7.9,3.1,7.7C4.1,7.4,5,7.1,6,6.8c0-0.1,0-0.2,0-0.2c-0.6,0-1.3,0-1.9,0c0.2-0.3,0.5-0.5,0.7-0.8C1.9,6-5.6,7.1-7,4.9
		c1.2,0,2.4,0,3.6,0C1.2,6.1,6.9,4.2,11.3,3.7c-0.2-0.1-0.3-0.2-0.5-0.2C7.9,2.3,4.6,2.7,2.6,0.8c0-0.1,0-0.2,0-0.2
		c0.2,0,0.5,0,0.7,0c6.3,2.2,16.3,2.5,22.4,4.5c-0.2-0.3-0.5-0.6-0.7-1c-0.8-0.5-1.6-1-2.4-1.4c0-0.1,0-0.2,0-0.2
		C26.4,3.1,28.1,5.6,31,7c0-0.1,0-0.2,0-0.2C28.2,3.2,19.1-3.3,17.8-6.4c0.3,0.2,0.6,0.3,1,0.5c8.1,3.3,11.4,12.1,17.2,18
		c-1.9-5.8-7.8-9-9.6-14.2c3.4,0.7,7,4,8.2,7c0.1,0,0.2,0,0.2,0c-0.3-2.5-1.8-3.5-2.6-5.5c8,1.4,9,8.5,14.4,11
		c-1-1.9-1.9-3.8-2.9-5.8c0.1,0,0.2,0,0.2,0c0.6,0.6,1.3,1.3,1.9,1.9c-0.1-0.7-0.2-1.4-0.2-2.2c0.1,0.2,0.2,0.3,0.2,0.5
		c3.8,3.7,6,10.3,11,12.7c-1.5-2-3.3-3.8-3.8-6.7c0.1,0,0.2,0,0.2,0c0.3,0.2,0.6,0.5,1,0.7c0.8,1.7,3.4,3.4,5.3,4.1
		c-0.4-1-0.8-1.9-1.2-2.9c0.3,0.2,0.6,0.3,1,0.5c1.9,0.8,2.9,2.4,4.3,3.6c-0.9-3.1-2.6-4.8-4.3-7c0-0.1,0-0.2,0-0.2
		c5.4,1.5,6.6,10.9,14.9,13.5c-0.6-0.8-0.7-0.7-0.7-1.4c0.1,0,0.2,0,0.2,0c1.7,0.2,2.8,0.8,3.4,2.2c0.1,0,0.2,0,0.2,0
		c0.7-4.2,0.3-7.9-0.5-11.8c0.1,0,0.2,0,0.2,0c0.2,0.1,0.3,0.2,0.5,0.2c0.2,0.6,0.3,1.1,0.5,1.7c0.1,0,0.2,0,0.2,0
		c-0.1-7.2-3.8-11.5-7.4-16.3c0-0.1,0-0.2,0-0.2c1.2,0.3,3.9,3.1,4.1,2.6c0.2,0,0.3,0,0.5,0c-0.6-1-1.1-1.9-1.7-2.9
		c0.3,0.2,0.6,0.3,1,0.5c2.3,0.9,4,3.3,4.8,5.8c0.1,0,0.2,0,0.2,0c-0.6-3.6-3-4.8-4.3-7.4c0.1,0,0.2,0,0.2,0C76.7-3.3,77.8-2.6,79-2
		c0-0.1,0-0.2,0-0.2c-1.8-2.9-4.2-5-7.9-6c0-0.2,0-0.3,0-0.5c0.1,0,0.2,0,0.2,0c1.7,0.6,3.4,1.3,5,1.9c-4.9-8-15.7-8.2-25-12
		c-3.1-1.7-6.2-3.4-9.4-5C40.1-24.5,30-26,29.4-26.9c2-0.1,4-0.2,6-0.2c-4.3-0.2-8.6-0.5-13-0.7c-3.1,0.6-6.2,1.1-9.4,1.7
		c0-0.1,0-0.2,0-0.2c0.1-0.2,0.2-0.3,0.2-0.5c1.8-0.6,3.7-1.3,5.5-1.9c1.7-0.2,3.4-0.3,5-0.5c-2.6-0.3-8.6,0-11-0.7
		c0.1-0.2,0.2-0.3,0.2-0.5c1.2-0.4,2.4-0.8,3.6-1.2c-0.2,0-0.3,0-0.5,0c-0.9-0.9-2.4-1.6-3.8-1.2c0.5-0.6,1-1.1,1.4-1.7
		c-3.7-0.1-5.5,1-8.2,1.7c0-0.2,0-0.5,0-0.7c0.2-0.4,0.5-0.8,0.7-1.2c-4.2,0-6.5,1.6-9.8,2.2c0.1-0.3,0.2-0.6,0.2-1
		c1.3-0.7,2.6-1.4,3.8-2.2c-3,1.1-6.1,2.2-9.1,3.4c0.5-1.7,2.5-3,4.1-3.6c0-0.1,0-0.2,0-0.2c-4.8,0.6-7.3,3.3-11,4.3
		c0-0.3,0-0.6,0-1c0.3-0.9,0.6-1.8,1-2.6c-0.1,0-0.2,0-0.2,0c-4.6,2.2-7.6,8.3-10.3,9.4c0-0.2,0-0.5,0-0.7c0.4-1,0.8-1.9,1.2-2.9
		c-0.1,0-0.2,0-0.2,0c-3.8,3-7.4,7.4-9.8,11.8c-1.3,2.4-1.4,6.2-4.1,7.2c0-0.4,0-0.8,0-1.2c0.5-2.1,1-4.2,1.4-6.2
		c-0.1,0-0.2,0-0.2,0c-0.6,1.3-0.7,0.4-1.2,1c-1.4,2.4-1.7,7-4.1,8.4c-0.8,0.7-1.5,0.4-2.4,0c-0.4-2.2-0.8-4.5-1.2-6.7
		c-0.6,3.3-1.1,6.6-1.7,9.8c-0.4,0-0.8,0-1.2,0c-0.5-1.3-1-1-1.2-2.6c-0.2-0.8-0.3-1.6-0.5-2.4c0,2.9,0,5.8,0,8.6
		c-0.4,0-0.8,0-1.2,0c-2.5-1.6-2.9-4.9-5.5-6.5c0.7,3.7,3.9,7.8,2.9,12c-0.1,0-0.2,0-0.2,0c-1.1-0.9-1.6-1.5-2-2.8
		c-0.1,0-0.2,0-0.2,0c0,0.4,0,0.8,0,1.2c-0.7-0.3-1.4-0.6-2.2-1c1,1.7,3.5,4.5,2.2,7.7c-0.2,0.3-0.3,0.6-0.5,1
		c-0.8-0.1-1.6-0.2-2.4-0.2c1.4,1.4,3.4,2,3.8,4.3c-0.2,0.2-0.5,0.3-0.7,0.5c-4.1,1.9-11.3-1-14.9,0c4.1,0.8,10.1,1.6,15.4,1
		c0,0.3,0,0.6,0,1c-0.1,0.2-0.2,0.3-0.2,0.5c-7.7,1.3-16.5,2.2-23.5-0.7c0.1,0.7,0.2,1.4,0.2,2.2c9,4.4,21.4,1.5,29-1.9
		c17.8-7.8,32.2-31,53.5-31.4c0,0.2,0,0.3,0,0.5C-23.2-8.8-31.3,14.2-56.2,21c0,0.4,0,0.8,0,1.2c0.5-0.2,1-0.3,1.4-0.5
		c-0.2,1.1-0.3,2.2-0.5,3.4c0.2,0.5,1.4,0.3,1,1.9c-0.4,1.3-1.5,1.6-0.5,3.8c0-0.2,0-0.3,0-0.5c0.6-1.4,1.1-2.9,1.7-4.3
		c0.3,0,0.6,0,1,0c0.2,1,0.3,1.9,0.5,2.9c0.4-1.2,0.6-1.5,2.2-1.7c0.6,1.1,1.1,2.2,1.7,3.4c0.7-0.6,0.2-0.5,1.2-0.5
		c0.6,1.6,1.3,3.2,1.9,4.8c0-1.4,0-2.1,1-2.6c0.2,0.3,0.3,0.6,0.5,1c-0.2-2.9-0.2-7.2,1.7-8.2c0,3.3,0.7,5.5,1.4,7.9
		c0.1,0,0.2,0,0.2,0c-0.4-1.8-1.1-4.1-0.5-6.2c0.1,0,0.2,0,0.2,0c0.2,0.1,0.5,0.2,0.7,0.2c0.4,1,0.8,1.9,1.2,2.9c0.1,0,0.2,0,0.2,0
		c0.2-1.2-0.2-0.7,0.7-1.2c0.2,0.8,0.5,1.6,0.7,2.4c0.1-0.2,0.2-0.5,0.2-0.7C-35.7,29.2-36.5,27.9-36.7,26.2z"/>
</symbol>
<symbol  id="Voegel" viewBox="-69.4 -67.7 138.9 135.3">
	<path class="st0" d="M39.2,66.7c1.6-0.9,5.9-3.7,8.9-2.6c1.4,0.5,1.3,1.6,3.4,1.9c0.2-0.7,0.5-1.4,0.7-2.2c3.8-0.4,7.7,0.1,11,0.5
		c-2.4-3.8-6.4-5.1-12.2-4.1c1-1.6,2-1.9,1.2-3.4c-3.5-1.5-7.3-1.7-9.6,1.4c1.1,0.8,2.2,1.6,3.4,2.4c-3.2,1.1-5.2,0-6.5,3.1
		C39.3,64.8,39.3,65.7,39.2,66.7z"/>
	<path class="st1" d="M10.6,60.7c0.3,0,5.9-2.5,6-2.6c-1.1,0.2-2.1,0.4-2.9-0.2c0.1-0.2,0.2-0.3,0.2-0.5c-0.3,0.1-0.6,0.2-1,0.2
		C12.6,59.4,12.2,59.5,10.6,60.7z"/>
	<path class="st0" d="M16.5,51.6c6.5,0,6.3-3.7,9.4-7c-0.1-0.8-0.1-0.7,0.2-1.4c3.5-0.9,5.4-2.5,5.5-6.7c-2,1.4-5.9,2.9-7.4,4.8
		c-0.2-0.1-0.3-0.2-0.5-0.2c-0.2-0.6-0.5-1.1-0.7-1.7c-1.9,1.3-2.6,2-3.4,4.6c1-0.1,1.9-0.2,2.9-0.2c-0.1,0.2-0.2,0.5-0.2,0.7
		C19.6,46.1,18.2,49.1,16.5,51.6z"/>
	<path class="st0" d="M53.2,39.3c2.1,0.1,4-0.2,5-1.2c-1-0.4-1.2-0.6-1.4-1.9c3.5-4.3,5.9-5,12.2-6.7c0-0.1,0-0.2,0-0.2
		c-0.2-0.2-0.5-0.3-0.7-0.5C62,24.4,53.5,29.9,50,32.2c0.3-2.3,1.2-4.4,2.2-6c-4.1-0.2-7,0.1-8.9,2.6c-0.2,0.6-0.5,1.1-0.7,1.7
		c-1.4-0.7-2.9-1.4-4.3-2.2c0.2,0.3,0.5,0.6,0.7,1C41.5,34.5,47.8,36.7,53.2,39.3z"/>
	<path class="st0" d="M11.6,26.1c1.8-1.4,3.7-2.7,5.5-4.1c0.4,1,0.2,0.8,1.2,1.2c0-0.9,0-1.8,0-2.6c1-0.1,0.9-0.1,1.4-0.5
		c-2.2-0.8-2.6-2.2-5.3-2.6c0.4,0.5,0.8,1,1.2,1.4C13.4,20,11.6,22.6,11.6,26.1z"/>
	<path class="st1" d="M-0.9,12c0.7-0.1,1.4-0.2,2.2-0.2c0.4-1.5,1.1-1.6,2.2-2.4C3.3,8.6,3.3,7.9,3.2,7.2c-0.1,0-0.2,0-0.2,0
		C2.7,8.6,2,8.6,0.9,9.1c-0.5-0.9,0-0.7-1-0.5c-0.1,0.3-0.1,0.5-0.2,0.7c0.2,0.1,0.5,0.2,0.7,0.2C0.2,10.9-0.2,11.1-0.9,12z"/>
	<path class="st0" d="M30.1,7.7c0,0.4,0,0.8,0,1.2c1.5-0.5,0.9,0.2,2.2,0.7c1.7,0.7,3.5-0.9,4.6-1.2c0-0.1,0-0.2,0-0.2
		c-3.7,0-3.7-1.7-5.3-2.6c-0.3-0.1-0.6-0.2-1-0.2c-0.1,0.3-0.2,0.6-0.2,1c-2.2-0.6-3.2-0.9-4.6-2.2c0.2,1.5,0.4,2.5,1.4,3.1
		C28,7.6,28.9,7.7,30.1,7.7z"/>
	<path class="st1" d="M8.1-0.3c0.2,0,0.3,0,0.5,0C8.4-0.3,8.1-0.3,8.1-0.3z"/>
	<path class="st1" d="M-17.6-0.5c2-0.1,4.7-1.2,5.8-1.9c-0.2,0-0.3,0-0.5,0c-0.9-1.1-1.8-1.7-3.4-2.2c0.2,0.3,0.5,0.6,0.7,1
		c-0.6,0.5-1.3,1-1.9,1.4c0.7,1.1,0.6,0.1,0.5,1.2C-16.9-0.8-17.2-0.7-17.6-0.5z"/>
	<path class="st1" d="M8.6-0.5c0.2,0,0.3,0,0.5,0C8.9-0.5,8.6-0.5,8.6-0.5z"/>
	<path class="st1" d="M9.2-1c0.2,0,0.5,0,0.7,0c0.1-0.2,0.2-0.3,0.2-0.5C10-1.7,9.9-1.8,9.9-2C9.8-1.9,9.6-1.8,9.4-1.7
		C9.4-1.5,9.4-1.2,9.2-1z"/>
	<path class="st1" d="M10.1-1c0.3,0,0.6,0,1,0c0-0.1,0-0.2,0-0.2C10.9-1.1,10.6-1.1,10.1-1z"/>
	<path class="st1" d="M-25.5-11.8c1.3,0,2,0.2,2.9-0.5c0-0.1,0-0.2,0-0.2c-1.7-0.3-0.8-0.7-2.2-1C-25.1-12.2-25.6-12.9-25.5-11.8z"
		/>
	<path class="st1" d="M-9.2-11.8c0.2-0.3,0.5-0.6,0.7-1c0.4-0.1,0.8-0.2,1.2-0.2c0.3,0.3,0.6,0.6,1,1c0-1.1,0.4-0.8,0-1.2
		c-0.4-0.5-0.9-1.3-1.2-0.5c-0.8,0.3-1,0.3-1.4,1C-9.1-12.4-9.1-12.1-9.2-11.8z"/>
	<path class="st1" d="M-24.6-21.6c0.1-0.2,0.2-0.3,0.2-0.5C-24.5-21.9-24.5-21.8-24.6-21.6z"/>
	<path class="st1" d="M-24.4-22.1c1-0.4,1.3-0.4,1.4-0.5c0.2-0.1,0.3-0.2,0.5-0.2c-0.4-0.2-0.8-0.3-1.2-0.5c-0.4,0.5,0,0.2-0.7,0.5
		C-24.4-22.6-24.4-22.3-24.4-22.1z"/>
	<path class="st1" d="M-26-26.2c0.1-0.2,0.2-0.5,0.2-0.7c-0.1,0-0.2,0-0.2,0C-26-26.7-26-26.4-26-26.2z"/>
	<path class="st1" d="M-67.3-26.4c0.1-0.2,0.2-0.3,0.2-0.5C-67.2-26.7-67.2-26.6-67.3-26.4z"/>
	<path class="st1" d="M-67.6-26.9c0.1-0.2,0.2-0.3,0.2-0.5C-67.4-27.2-67.4-27.1-67.6-26.9z"/>
	<path class="st1" d="M-67.8-27.4c0.1-0.2,0.2-0.3,0.2-0.5C-67.7-27.7-67.8-27.5-67.8-27.4z"/>
	<path class="st1" d="M-68.1-27.9c0.1-0.2,0.2-0.3,0.2-0.5C-67.8-28.2-67.9-28-68.1-27.9z"/>
	<path class="st1" d="M-68.2-28.3c0.1-0.2,0.2-0.3,0.2-0.5C-68.2-28.7-68.2-28.5-68.2-28.3z"/>
	<path class="st1" d="M-57.8-30c0.1-0.2,0.2-0.3,0.2-0.5C-57.5-30.3-57.7-30.2-57.8-30z"/>
	<path class="st1" d="M-58.5-33.9c0.1-0.2,0.2-0.3,0.2-0.5C-58.2-34.2-58.3-34-58.5-33.9z"/>
	<path class="st1" d="M-69.4-35.5c0.1-0.2,0.2-0.3,0.2-0.5C-69.3-35.9-69.4-35.7-69.4-35.5z"/>
	<path class="st1" d="M-24.4-36c0.1-0.2,0.2-0.3,0.2-0.5C-24.2-36.3-24.2-36.2-24.4-36z"/>
	<path class="st1" d="M-24.6-36.7c0.1-0.2,0.2-0.5,0.2-0.7c-0.1,0-0.2,0-0.2,0C-24.6-37.2-24.6-37-24.6-36.7z"/>
	<path class="st2" d="M-68.1-67.7c0.2,0,0.5,0,0.7,0C-67.6-67.7-67.8-67.7-68.1-67.7z"/>
</symbol>
<g>
	<g>
		<defs>
			<rect id="SVGID_1_" x="910" y="-15" width="1920" height="130"/>
		</defs>
		<clipPath id="SVGID_2_">
			<use xlink:href="#SVGID_1_"  style="overflow:visible;"/>
		</clipPath>
		<g class="st3">
			
				<use xlink:href="#Voegel"  width="138.9" height="135.3" x="-69.4" y="-67.7" transform="matrix(1.0069 0 0 -0.9134 919.2357 -98.3223)" style="overflow:visible;"/>
			
				<use xlink:href="#Voegel"  width="138.9" height="135.3" x="-69.4" y="-67.7" transform="matrix(0.9131 1.515098e-02 1.670262e-02 -0.8283 935.0001 195.9134)" style="overflow:visible;opacity:0.3;"/>
			
				<use xlink:href="#Voegel"  width="138.9" height="135.3" x="-69.4" y="-67.7" transform="matrix(1.0134 0.1102 0.1215 -0.9193 954.713 130.4765)" style="overflow:visible;opacity:0.3;"/>
			
				<use xlink:href="#Voegel"  width="138.9" height="135.3" x="-69.4" y="-67.7" transform="matrix(1.2058 -3.435875e-03 -3.787751e-03 -1.0937 1075.6002 -74.198)" style="overflow:visible;opacity:0.3;"/>
			
				<use xlink:href="#Voegel"  width="138.9" height="135.3" x="-69.4" y="-67.7" transform="matrix(1.3099 0 0 -1.1882 1173.6608 -37.7409)" style="overflow:visible;opacity:0.3;"/>
			
				<use xlink:href="#Voegel"  width="138.9" height="135.3" x="-69.4" y="-67.7" transform="matrix(1.0517 -0.5228 -0.5763 -0.954 1177.7966 32.8084)" style="overflow:visible;opacity:0.3;"/>
			
				<use xlink:href="#Voegel"  width="138.9" height="135.3" x="-69.4" y="-67.7" transform="matrix(1.8308 -0.3863 -0.4259 -1.6607 1205.4733 126.2539)" style="overflow:visible;opacity:0.3;"/>
			
				<use xlink:href="#Voegel"  width="138.9" height="135.3" x="-69.4" y="-67.7" transform="matrix(1.1234 -0.1689 -0.1862 -1.019 1146.6035 193.1371)" style="overflow:visible;opacity:0.3;"/>
			
				<use xlink:href="#Voegel"  width="138.9" height="135.3" x="-69.4" y="-67.7" transform="matrix(1.8237 0 0 -1.6543 1243.6635 254.8383)" style="overflow:visible;opacity:0.3;"/>
			
				<use xlink:href="#Voegel"  width="138.9" height="135.3" x="-69.4" y="-67.7" transform="matrix(2.825 0 0 -2.5627 1413.2452 163.5421)" style="overflow:visible;opacity:0.3;"/>
			
				<use xlink:href="#Voegel"  width="138.9" height="135.3" x="-69.4" y="-67.7" transform="matrix(0.9133 0 0 -0.8284 1268.5784 70.17)" style="overflow:visible;opacity:0.3;"/>
			
				<use xlink:href="#Voegel"  width="138.9" height="135.3" x="-69.4" y="-67.7" transform="matrix(0.9133 0 0 -0.8284 1712.3246 18.9699)" style="overflow:visible;opacity:0.3;"/>
			
				<use xlink:href="#Voegel"  width="138.9" height="135.3" x="-69.4" y="-67.7" transform="matrix(0.9127 2.935520e-02 3.236154e-02 -0.8279 1779.2426 157.1506)" style="overflow:visible;opacity:0.3;"/>
			
				<use xlink:href="#Voegel"  width="138.9" height="135.3" x="-69.4" y="-67.7" transform="matrix(1.6367 -0.3653 -0.4027 -1.4846 1440.7583 -28.8031)" style="overflow:visible;opacity:0.3;"/>
			
				<use xlink:href="#Voegel"  width="138.9" height="135.3" x="-69.4" y="-67.7" transform="matrix(0.9133 0 0 -0.8284 1611.8828 135.9372)" style="overflow:visible;opacity:0.3;"/>
			
				<use xlink:href="#Voegel"  width="138.9" height="135.3" x="-69.4" y="-67.7" transform="matrix(0.8651 0.2656 0.2928 -0.7847 1727.7197 246.2744)" style="overflow:visible;opacity:0.3;"/>
			
				<use xlink:href="#Voegel"  width="138.9" height="135.3" x="-69.4" y="-67.7" transform="matrix(1.1278 0 0 -1.0231 1676.7341 225.3039)" style="overflow:visible;opacity:0.3;"/>
			
				<use xlink:href="#Voegel"  width="138.9" height="135.3" x="-69.4" y="-67.7" transform="matrix(0.9133 0 0 -0.8284 1716.194 141.4779)" style="overflow:visible;opacity:0.3;"/>
			
				<use xlink:href="#Voegel"  width="138.9" height="135.3" x="-69.4" y="-67.7" transform="matrix(0.9133 0 0 -0.8284 1826.3076 79.9229)" style="overflow:visible;opacity:0.3;"/>
			
				<use xlink:href="#Voegel"  width="138.9" height="135.3" x="-69.4" y="-67.7" transform="matrix(1.2286 -1.0875 -1.1989 -1.1145 2039.9911 206.2842)" style="overflow:visible;opacity:0.3;"/>
			
				<use xlink:href="#Voegel"  width="138.9" height="135.3" x="-69.4" y="-67.7" transform="matrix(2.3574 7.701052e-03 8.489735e-03 -2.1384 1978.8098 49.1471)" style="overflow:visible;opacity:0.3;"/>
			
				<use xlink:href="#Voegel"  width="138.9" height="135.3" x="-69.4" y="-67.7" transform="matrix(1.4989 -0.3901 -0.4301 -1.3596 1840.5299 275.8439)" style="overflow:visible;opacity:0.3;"/>
			
				<use xlink:href="#Voegel"  width="138.9" height="135.3" x="-69.4" y="-67.7" transform="matrix(1.437 6.545299e-02 7.215618e-02 -1.3035 2013.9963 -8.0189)" style="overflow:visible;opacity:0.3;"/>
			
				<use xlink:href="#Voegel"  width="138.9" height="135.3" x="-69.4" y="-67.7" transform="matrix(1.2116 0 0 -1.099 2289.2002 123.5479)" style="overflow:visible;opacity:0.3;"/>
			
				<use xlink:href="#Voegel"  width="138.9" height="135.3" x="-69.4" y="-67.7" transform="matrix(1.3925 0 0 -1.2631 2212.032 -33.1545)" style="overflow:visible;opacity:0.3;"/>
			
				<use xlink:href="#Voegel"  width="138.9" height="135.3" x="-69.4" y="-67.7" transform="matrix(1.0807 5.523056e-02 6.088685e-02 -0.9803 2189.7473 238.1706)" style="overflow:visible;opacity:0.3;"/>
			
				<use xlink:href="#Voegel"  width="138.9" height="135.3" x="-69.4" y="-67.7" transform="matrix(1.1381 0.1068 0.1177 -1.0324 2514.0549 185.9982)" style="overflow:visible;opacity:0.3;"/>
			
				<use xlink:href="#Voegel"  width="138.9" height="135.3" x="-69.4" y="-67.7" transform="matrix(0.8674 0.7073 0.7798 -0.7868 2449.2034 224.4595)" style="overflow:visible;opacity:0.3;"/>
			
				<use xlink:href="#Voegel"  width="138.9" height="135.3" x="-69.4" y="-67.7" transform="matrix(2.0975 0 0 -1.9026 2100.2769 106.6063)" style="overflow:visible;opacity:0.3;"/>
			
				<use xlink:href="#Voegel"  width="138.9" height="135.3" x="-69.4" y="-67.7" transform="matrix(1.3852 0 0 -1.2565 2613.126 49.8901)" style="overflow:visible;opacity:0.3;"/>
			
				<use xlink:href="#Voegel"  width="138.9" height="135.3" x="-69.4" y="-67.7" transform="matrix(0.9196 0 0 -0.8342 2662.2927 164.6273)" style="overflow:visible;opacity:0.3;"/>
			
				<use xlink:href="#Voegel"  width="138.9" height="135.3" x="-69.4" y="-67.7" transform="matrix(0.9133 0 0 -0.8284 2607.3992 198.1649)" style="overflow:visible;opacity:0.3;"/>
			
				<use xlink:href="#Voegel"  width="138.9" height="135.3" x="-69.4" y="-67.7" transform="matrix(2.3265 0 0 -2.1104 2764.7798 175.8259)" style="overflow:visible;opacity:0.3;"/>
			
				<use xlink:href="#Voegel"  width="138.9" height="135.3" x="-69.4" y="-67.7" transform="matrix(0.8651 0.2656 0.2928 -0.7847 1552.4745 -18.4891)" style="overflow:visible;opacity:0.3;"/>
			
				<use xlink:href="#Voegel"  width="138.9" height="135.3" x="-69.4" y="-67.7" transform="matrix(0.9133 0 0 -0.8284 1021.033 44.5716)" style="overflow:visible;opacity:0.3;"/>
			
				<use xlink:href="#Voegel"  width="138.9" height="135.3" x="-69.4" y="-67.7" transform="matrix(1.8308 -0.3863 -0.4259 -1.6607 944.359 36.6028)" style="overflow:visible;opacity:0.3;"/>
			
				<use xlink:href="#Voegel"  width="138.9" height="135.3" x="-69.4" y="-67.7" transform="matrix(2.825 0 0 -2.5627 1433.4719 257.8156)" style="overflow:visible;opacity:0.3;"/>
			
				<use xlink:href="#Voegel"  width="138.9" height="135.3" x="-69.4" y="-67.7" transform="matrix(0.9133 0 0 -0.8284 2714.7791 238.2907)" style="overflow:visible;opacity:0.3;"/>
			
				<use xlink:href="#Voegel"  width="138.9" height="135.3" x="-69.4" y="-67.7" transform="matrix(0.9133 0 0 -0.8284 2552.4624 -6.1957)" style="overflow:visible;opacity:0.3;"/>
			
				<use xlink:href="#Voegel"  width="138.9" height="135.3" x="-69.4" y="-67.7" transform="matrix(0.9133 0 0 -0.8284 2474.4722 47.6697)" style="overflow:visible;opacity:0.3;"/>
			
				<use xlink:href="#Voegel"  width="138.9" height="135.3" x="-69.4" y="-67.7" transform="matrix(0.9133 0 0 -0.8284 2443.8235 -33.8208)" style="overflow:visible;opacity:0.3;"/>
		</g>
	</g>
	<g>
		<defs>
			<rect id="SVGID_3_" x="910" y="-15" width="1920" height="130"/>
		</defs>
		<clipPath id="SVGID_4_">
			<use xlink:href="#SVGID_3_"  style="overflow:visible;"/>
		</clipPath>
		<g class="st4">
			
				<use xlink:href="#Feder-only"  width="160.5" height="75.3" x="-80.3" y="-37.6" transform="matrix(1.1588 7.821787e-03 7.821787e-03 -1.1588 1147.9401 89.9311)" style="overflow:visible;"/>
			
				<use xlink:href="#Feder-only"  width="160.5" height="75.3" x="-80.3" y="-37.6" transform="matrix(0.716 0.3935 0.3935 -0.716 2777.2471 214.9234)" style="overflow:visible;"/>
			
				<use xlink:href="#Feder-only"  width="160.5" height="75.3" x="-80.3" y="-37.6" transform="matrix(1.3031 -0.1081 -0.1081 -1.3031 2700.7017 131.5956)" style="overflow:visible;"/>
			
				<use xlink:href="#Feder-only"  width="160.5" height="75.3" x="-80.3" y="-37.6" transform="matrix(0.9882 -1.896303e-02 -1.896303e-02 -0.9882 2791.2097 -146.3384)" style="overflow:visible;"/>
			
				<use xlink:href="#Feder-only"  width="160.5" height="75.3" x="-80.3" y="-37.6" transform="matrix(0.8304 0.2999 0.2999 -0.8304 2359.4482 241.2503)" style="overflow:visible;"/>
			
				<use xlink:href="#Feder-only"  width="160.5" height="75.3" x="-80.3" y="-37.6" transform="matrix(0.8328 -0.3006 -0.3006 -0.8328 2445.4939 89.3051)" style="overflow:visible;"/>
			
				<use xlink:href="#Feder-only"  width="160.5" height="75.3" x="-80.3" y="-37.6" transform="matrix(0.7559 -0.6368 -0.6368 -0.7559 2256.9075 125.429)" style="overflow:visible;"/>
			
				<use xlink:href="#Feder-only"  width="160.5" height="75.3" x="-80.3" y="-37.6" transform="matrix(1.3713 -0.1607 -0.1607 -1.3713 2060.4036 166.6703)" style="overflow:visible;"/>
			
				<use xlink:href="#Feder-only"  width="160.5" height="75.3" x="-80.3" y="-37.6" transform="matrix(0.8781 7.038912e-02 7.038912e-02 -0.8781 1861.4224 266.3184)" style="overflow:visible;"/>
			
				<use xlink:href="#Feder-only"  width="160.5" height="75.3" x="-80.3" y="-37.6" transform="matrix(0.779 -0.6082 -0.6082 -0.779 1572.1235 247.3082)" style="overflow:visible;"/>
			
				<use xlink:href="#Feder-only"  width="160.5" height="75.3" x="-80.3" y="-37.6" transform="matrix(1.1937 -0.2665 -0.2665 -1.1937 1263.6697 234.6741)" style="overflow:visible;"/>
			
				<use xlink:href="#Feder-only"  width="160.5" height="75.3" x="-80.3" y="-37.6" transform="matrix(0.6057 -0.4521 -0.4521 -0.6057 1324.2729 78.8296)" style="overflow:visible;"/>
			
				<use xlink:href="#Feder-only"  width="160.5" height="75.3" x="-80.3" y="-37.6" transform="matrix(0.8889 0.432 0.432 -0.8889 1593.7382 -47.6614)" style="overflow:visible;"/>
			
				<use xlink:href="#Feder-only"  width="160.5" height="75.3" x="-80.3" y="-37.6" transform="matrix(1.2671 -0.3336 -0.3336 -1.2671 1410.3601 -92.2228)" style="overflow:visible;"/>
			
				<use xlink:href="#Feder-only"  width="160.5" height="75.3" x="-80.3" y="-37.6" transform="matrix(0.7841 0 0 -0.7841 1266.7178 -111.3637)" style="overflow:visible;"/>
			
				<use xlink:href="#Feder-only"  width="160.5" height="75.3" x="-80.3" y="-37.6" transform="matrix(0.9482 -0.2787 -0.2787 -0.9482 1723.4865 -111.6447)" style="overflow:visible;"/>
			
				<use xlink:href="#Feder-only"  width="160.5" height="75.3" x="-80.3" y="-37.6" transform="matrix(0.748 -8.846372e-02 -8.846372e-02 -0.748 1867.2247 34.0019)" style="overflow:visible;"/>
			
				<use xlink:href="#Feder-only"  width="160.5" height="75.3" x="-80.3" y="-37.6" transform="matrix(0.6391 0.5221 0.5221 -0.6391 1404.5861 146.7517)" style="overflow:visible;"/>
			
				<use xlink:href="#Feder-only"  width="160.5" height="75.3" x="-80.3" y="-37.6" transform="matrix(0.7793 0.6078 0.6078 -0.7793 1664.7469 92.9828)" style="overflow:visible;"/>
			
				<use xlink:href="#Feder-only"  width="160.5" height="75.3" x="-80.3" y="-37.6" transform="matrix(0.9851 -8.022380e-02 -8.022380e-02 -0.9851 2206.1179 -32.3381)" style="overflow:visible;"/>
			
				<use xlink:href="#Feder-only"  width="160.5" height="75.3" x="-80.3" y="-37.6" transform="matrix(1.0988 -6.870277e-02 -6.870277e-02 -1.0988 2228.4243 -166.1906)" style="overflow:visible;"/>
			
				<use xlink:href="#Feder-only"  width="160.5" height="75.3" x="-80.3" y="-37.6" transform="matrix(0.9085 -0.3891 -0.3891 -0.9085 982.4442 -83.1574)" style="overflow:visible;"/>
			
				<use xlink:href="#Feder-only"  width="160.5" height="75.3" x="-80.3" y="-37.6" transform="matrix(0.745 -0.4254 -0.4254 -0.745 933.6809 81.0867)" style="overflow:visible;"/>
			
				<use xlink:href="#Feder-only"  width="160.5" height="75.3" x="-80.3" y="-37.6" transform="matrix(0.9883 1.303827e-02 1.303827e-02 -0.9883 932.681 254.4792)" style="overflow:visible;"/>
			
				<use xlink:href="#Feder-only"  width="160.5" height="75.3" x="-80.3" y="-37.6" transform="matrix(1.1367 0 0 -1.1367 2002.3827 -70.9569)" style="overflow:visible;"/>
			
				<use xlink:href="#Feder-only"  width="160.5" height="75.3" x="-80.3" y="-37.6" transform="matrix(1.4165 -2.498616e-02 -2.498616e-02 -1.4165 2518.5505 -110.6645)" style="overflow:visible;"/>
			
				<use xlink:href="#Feder-only"  width="160.5" height="75.3" x="-80.3" y="-37.6" transform="matrix(0.8846 -0.4409 -0.4409 -0.8846 2543.5645 263.3191)" style="overflow:visible;"/>
		</g>
	</g>
</g>
</svg>
